<svg width="567" height="247" viewBox="0 0 567 247" fill="none" xmlns="http://www.w3.org/2000/svg">
<g filter="url(#filter0_d)">
<path d="M10 165.12H98.76V213.56H147.2V165.12H171V124.52H147.2V13.36H87.28L10 135.44V165.12ZM59.84 124.52V123.96L90.08 78.04C95.68 69.64 99.88 57.32 99.88 57.32H100.44C100.44 57.32 98.76 68.8 98.76 79.72V124.52H59.84Z" fill="#3FA5AA"/>
<path fill-rule="evenodd" clip-rule="evenodd" d="M358.781 113.04C358.781 188.52 327.348 216.92 270.508 216.92C213.668 216.92 187.781 175.06 187.781 113.04C187.781 43.06 213.668 10 270.508 10C327.348 10 358.781 37.56 358.781 113.04Z" fill="#3FA5AA"/>
<path d="M375.281 165.12H464.041V213.56H512.481V165.12H536.281V124.52H512.481V13.36H452.561L375.281 135.44V165.12ZM425.121 124.52V123.96L455.361 78.04C460.961 69.64 465.161 57.32 465.161 57.32H465.721C465.721 57.32 464.041 68.8 464.041 79.72V124.52H425.121Z" fill="#3FA5AA"/>
</g>
<path d="M279.561 102.451C275.542 100.959 273.228 102.695 271.127 103.943C267.138 106.318 264.885 109.394 263.636 112.439C261.657 116.793 261.353 131.439 260.987 132.657C258.582 135.976 255.354 138.747 254.014 141.822C251.944 147.303 254.593 154.307 263.576 160.001C262.784 159.696 261.962 159.3 261.17 158.813C251.67 153.028 248.899 145.811 251 140.239C251.822 138.351 253.344 136.555 254.958 134.728C255.963 133.57 257.029 132.353 257.942 131.074C258.186 130.282 258.399 123.674 259.069 118.011C259.434 115.057 259.922 112.347 260.591 110.825C261.84 107.749 264.093 104.704 268.082 102.329C270.701 100.807 273.593 98.5231 279.561 102.451Z" fill="#3E8B93"/>
<path d="M309.098 135.428C307.667 137.468 305.627 139.204 302.947 140.422C293.295 144.776 292.777 139.782 287.296 148.704C282.242 156.895 272.68 163.594 263.606 160.031C254.593 154.307 251.975 147.303 254.045 141.853C255.385 138.747 258.613 136.007 261.018 132.688C261.384 131.47 261.688 116.823 263.667 112.469C264.916 109.394 267.169 106.349 271.158 103.974C273.259 102.725 275.573 100.959 279.592 102.482C280.963 103.365 282.455 104.583 284.19 106.197C289.61 111.312 291.711 112.621 293.142 112.895C296.492 115.362 296.918 114.296 299.202 114.54C300.998 114.753 302.612 114.053 304.744 114.631C305.718 115.392 306.814 116.428 308.032 117.889C312.326 122.974 312.813 130.16 309.098 135.428Z" fill="#3E8B93"/>
<path d="M288.699 88.0486C287.328 91.7634 287.663 95.8437 288.272 97.1226C290.252 101.233 294.393 106.014 298.229 108.632C293.814 107.11 287.785 100.776 285.258 95.5392C284.953 94.9302 284.74 93.6209 284.74 92.007C284.74 90.3323 285.014 88.3531 285.684 86.4652C285.989 85.6736 286.354 84.9123 286.811 84.1815C287.907 82.385 289.521 80.9234 291.865 80.1926C295.245 79.1574 298.443 79.949 301.153 81.8978C299.204 81.1975 297.103 81.1061 294.91 81.776C291.561 82.8113 289.704 85.3386 288.699 88.0486Z" fill="#3E8B93"/>
<path d="M308.826 93.8644C310.013 98.31 309.039 101.385 307.303 103.639C305.72 105.74 303.436 107.171 301.67 108.45C300.787 109.059 299.63 109.059 298.29 108.602C298.29 108.602 298.29 108.602 298.26 108.602C294.454 106.014 290.282 101.203 288.303 97.092C287.694 95.8132 287.359 91.7329 288.729 88.0181C289.704 85.3081 291.591 82.7808 294.91 81.776C297.103 81.1061 299.204 81.1974 301.153 81.8977C304.746 84.4555 307.517 88.9925 308.826 93.8644Z" fill="#3E8B93"/>
<path d="M283.643 81.3801C284.312 85.2472 283.094 88.414 281.42 90.9108C278.801 94.717 275.025 96.7876 275.025 96.7876C273.016 96.9094 271.402 96.7267 270.093 96.3918C264.429 94.8084 264.185 89.2666 261.201 83.2071C259.466 79.7054 259.253 75.7165 260.379 72.4584C261.628 68.8045 264.581 66.0945 268.935 66.0032C272.072 65.9423 274.751 66.7644 276.913 68.3173C280.354 70.8446 282.607 75.3511 283.643 81.3801Z" fill="#3E8B93"/>
<path d="M258.857 104.309C258.126 105.192 257.182 105.923 255.964 106.44C253.62 107.475 251.58 107.628 249.783 107.11C245.794 106.044 243.206 101.842 241.927 97.7012C240.527 93.1642 240.648 87.9573 241.927 84.3034C242.293 83.1768 242.81 82.1719 243.419 81.4107C245.064 79.3097 249.083 77.4827 253.254 80.8017C254.29 81.6238 255.325 82.7505 256.36 84.2729C260.654 90.8196 262.816 99.6804 258.857 104.309Z" fill="#3E8B93"/>
<path d="M256.36 117.706C256.695 120.599 257.274 127.877 254.198 131.5C253.376 132.474 252.31 133.175 250.94 133.479C248.261 134.058 245.886 134.088 243.876 133.479C240.922 132.627 238.699 130.373 237.36 126.506C235.685 121.695 235.715 117.92 236.598 115.21C237.421 112.652 239.004 111.007 240.648 110.185C242.384 109.333 243.998 108.906 245.459 108.785C247.895 108.572 249.935 109.241 251.549 110.338C251.732 110.459 251.945 110.612 252.097 110.733C254.716 112.774 256.147 115.879 256.36 117.706Z" fill="#3E8B93"/>
<path d="M309.1 135.428C307.669 137.468 305.629 139.204 302.949 140.422C293.297 144.776 292.779 139.782 287.298 148.704C282.244 156.895 272.682 163.594 263.608 160.031C254.595 154.307 251.977 147.303 254.047 141.853C255.387 138.747 258.615 136.007 261.02 132.688C261.386 131.47 261.69 116.823 263.669 112.469C264.918 109.394 267.171 106.349 271.16 103.974C273.261 102.725 275.575 100.959 279.594 102.482C281.635 103.243 284.101 104.857 287.207 107.78C289.886 110.307 291.744 111.891 293.114 112.895C296.463 115.362 296.89 114.296 299.173 114.54C300.97 114.753 302.584 114.053 304.715 114.631C305.69 115.392 306.786 116.428 308.004 117.889C312.328 122.974 312.815 130.16 309.1 135.428Z" fill="#92CDD6"/>
<path d="M308.826 93.8644C310.013 98.31 309.039 101.385 307.303 103.639C305.72 105.74 303.436 107.171 301.67 108.45C300.787 109.059 299.63 109.059 298.29 108.602C298.29 108.602 298.29 108.602 298.26 108.602C294.454 106.014 290.282 101.203 288.303 97.092C287.694 95.8132 287.359 91.7329 288.729 88.0181C289.704 85.3081 291.591 82.7808 294.91 81.7759C297.103 81.106 299.204 81.1974 301.153 81.8977C304.746 84.4555 307.517 88.9925 308.826 93.8644Z" fill="#92CDD6"/>
<path d="M283.644 81.3801C284.314 85.2472 283.096 88.4139 281.421 90.9108C278.802 94.717 275.026 96.7875 275.026 96.7875C273.017 96.9093 271.403 96.7266 270.094 96.3917C267.201 93.9253 266.531 89.5101 264.217 84.7904C262.481 81.2887 262.268 77.2999 263.395 74.0418C264.643 70.3878 267.597 67.6778 271.951 67.5865C273.778 67.556 275.422 67.8301 276.914 68.3173C280.355 70.8446 282.608 75.3511 283.644 81.3801Z" fill="#92CDD6"/>
<path d="M258.858 104.309C258.127 105.192 257.184 105.923 255.966 106.44C253.621 107.475 251.581 107.628 249.784 107.11C247.47 105.253 245.856 102.269 244.943 99.2845C243.542 94.7476 243.664 89.5407 244.943 85.8868C245.308 84.7601 245.826 83.7553 246.435 82.9941C247.653 81.4107 250.241 79.9796 253.225 80.8017C254.26 81.6238 255.296 82.7505 256.331 84.2729C260.655 90.8196 262.817 99.6804 258.858 104.309Z" fill="#92CDD6"/>
<path d="M254.199 131.5C253.377 132.474 252.311 133.175 250.941 133.479C248.262 134.058 245.887 134.088 243.877 133.479C242.385 132.261 241.228 130.495 240.375 128.09C238.701 123.279 238.731 119.503 239.614 116.793C240.436 114.235 242.02 112.591 243.664 111.769C245.399 110.916 247.013 110.49 248.475 110.368C249.815 110.246 251.002 110.399 252.098 110.734C254.747 112.774 256.148 115.849 256.392 117.676C256.696 120.599 257.275 127.877 254.199 131.5Z" fill="#92CDD6"/>
<path d="M262.54 159.3C262.875 159.544 263.24 159.788 263.605 160.031C262.814 159.727 261.992 159.331 261.2 158.844C261.169 158.813 261.109 158.813 261.078 158.783C261.291 158.874 261.474 158.966 261.687 159.026C261.961 159.118 262.235 159.24 262.54 159.3Z" fill="#BFE7E8"/>
<path d="M309.096 135.428C307.665 137.468 305.625 139.204 302.946 140.422C293.293 144.776 292.775 139.782 287.294 148.704C282.24 156.895 272.679 163.594 263.605 160.031C263.239 159.787 262.874 159.544 262.539 159.3C271.369 162.132 280.504 155.616 285.376 147.669C290.857 138.747 291.375 143.741 301.027 139.386C303.707 138.168 305.777 136.433 307.178 134.393C310.862 129.155 310.375 121.939 306.082 116.823C305.26 115.849 304.498 115.057 303.768 114.387C304.072 114.418 304.377 114.479 304.712 114.57C305.686 115.331 306.782 116.366 308 117.828C312.324 122.974 312.811 130.16 309.096 135.428Z" fill="#BFE7E8"/>
<path d="M297.162 107.841C297.527 108.115 297.893 108.358 298.258 108.633C297.497 108.358 296.675 107.963 295.822 107.415C296.005 107.506 296.157 107.567 296.34 107.628C296.37 107.628 296.37 107.628 296.37 107.628C296.614 107.689 296.888 107.78 297.162 107.841Z" fill="#BFE7E8"/>
<path d="M301.149 81.8979C300.814 81.7761 300.479 81.6848 300.144 81.5934C299.84 81.3498 299.535 81.1063 299.231 80.8627C299.048 80.7409 298.835 80.5886 298.652 80.4668C299.505 80.8627 300.358 81.3498 301.149 81.8979Z" fill="#BFE7E8"/>
<path d="M308.822 93.8646C310.01 98.3102 309.035 101.386 307.3 103.639C305.716 105.74 303.433 107.171 301.667 108.45C300.784 109.059 299.627 109.059 298.287 108.602C298.287 108.602 298.287 108.602 298.256 108.602C297.891 108.359 297.556 108.085 297.16 107.81C298.165 108.024 299.048 107.932 299.748 107.445C301.545 106.166 303.798 104.735 305.382 102.634C307.117 100.381 308.092 97.3054 306.904 92.8598C305.716 88.4141 303.281 84.2426 300.144 81.6239C300.479 81.6848 300.814 81.8066 301.149 81.9284C304.742 84.4557 307.513 88.9927 308.822 93.8646Z" fill="#BFE7E8"/>
<path d="M283.641 81.3802C283.945 83.0853 283.854 84.6992 283.55 86.1607C283.519 86.2216 283.519 86.2825 283.489 86.3434C283.428 86.5261 283.367 86.7088 283.336 86.8611C283.336 86.8915 283.336 86.8915 283.336 86.8915C282.91 88.3835 282.24 89.7233 281.418 90.8804C278.8 94.6866 275.024 96.7572 275.024 96.7572C273.014 96.879 271.4 96.6963 270.091 96.3613C269.056 96.0873 268.234 95.661 267.533 95.1433C267.746 95.2347 267.959 95.2956 268.173 95.3565C269.482 95.7219 271.096 95.8741 273.105 95.7523C273.105 95.7523 276.912 93.6818 279.5 89.8756C281.205 87.4092 282.393 84.212 281.723 80.3449C280.718 74.3159 278.465 69.8094 274.963 67.282C274.811 67.1603 274.658 67.0689 274.506 66.9776C275.359 67.3125 276.15 67.7692 276.912 68.2869C280.352 70.8446 282.606 75.3512 283.641 81.3802Z" fill="#BFE7E8"/>
<path d="M258.855 104.309C258.124 105.192 257.18 105.922 255.962 106.44C253.618 107.475 251.578 107.628 249.781 107.11C248.868 106.866 248.015 106.44 247.254 105.892C247.467 105.953 247.65 106.044 247.863 106.075C249.659 106.592 251.73 106.44 254.044 105.405C255.232 104.857 256.206 104.156 256.937 103.273C260.865 98.6145 258.733 89.7842 254.41 83.2984C253.374 81.776 252.339 80.6493 251.304 79.8272C251.151 79.7054 250.969 79.5836 250.816 79.4618C251.608 79.7663 252.4 80.1926 253.222 80.8625C254.257 81.6846 255.293 82.8112 256.328 84.3337C260.652 90.8195 262.814 99.6803 258.855 104.309Z" fill="#BFE7E8"/>
<path d="M256.358 117.707C256.511 118.925 256.693 120.934 256.602 123.157C256.602 123.218 256.602 123.309 256.602 123.37C256.602 123.949 256.541 124.558 256.48 125.136C256.48 125.197 256.48 125.288 256.45 125.349C256.176 127.664 255.536 129.947 254.197 131.531C253.374 132.505 252.309 133.205 250.938 133.51C248.259 134.088 245.884 134.119 243.874 133.51C242.961 133.236 242.108 132.84 241.316 132.292C241.53 132.353 241.743 132.444 241.956 132.505C243.966 133.114 246.341 133.084 249.02 132.505C250.421 132.201 251.487 131.5 252.278 130.526C255.354 126.902 254.775 119.625 254.44 116.732C254.227 114.905 252.796 111.799 250.147 109.79C249.995 109.668 249.812 109.546 249.629 109.394C250.299 109.668 250.938 110.003 251.517 110.368C251.7 110.49 251.913 110.642 252.065 110.764C254.714 112.774 256.145 115.88 256.358 117.707Z" fill="#BFE7E8"/>
<path d="M262.54 159.3C262.875 159.544 263.24 159.788 263.605 160.031C262.814 159.727 261.992 159.331 261.2 158.844C261.169 158.813 261.109 158.813 261.078 158.783C261.291 158.874 261.474 158.966 261.687 159.026C261.961 159.118 262.235 159.24 262.54 159.3Z" fill="#BFE7E8"/>
<path d="M309.096 135.428C307.665 137.468 305.625 139.204 302.946 140.422C293.293 144.776 292.775 139.782 287.294 148.704C282.24 156.895 272.679 163.594 263.605 160.031C263.239 159.787 262.874 159.544 262.539 159.3C271.369 162.132 280.504 155.616 285.376 147.669C290.857 138.747 291.375 143.741 301.027 139.386C303.707 138.168 305.777 136.433 307.178 134.393C310.862 129.155 310.375 121.939 306.082 116.823C305.26 115.849 304.498 115.057 303.768 114.387C304.072 114.418 304.377 114.479 304.712 114.57C305.686 115.331 306.782 116.366 308 117.828C312.324 122.974 312.811 130.16 309.096 135.428Z" fill="#BFE7E8"/>
<path d="M297.162 107.841C297.527 108.115 297.893 108.358 298.258 108.633C297.497 108.358 296.675 107.963 295.822 107.415C296.005 107.506 296.157 107.567 296.34 107.628C296.37 107.628 296.37 107.628 296.37 107.628C296.614 107.689 296.888 107.78 297.162 107.841Z" fill="#BFE7E8"/>
<path d="M301.149 81.8979C300.814 81.7761 300.479 81.6848 300.144 81.5934C299.84 81.3498 299.535 81.1063 299.231 80.8627C299.048 80.7409 298.835 80.5886 298.652 80.4668C299.505 80.8627 300.358 81.3498 301.149 81.8979Z" fill="#BFE7E8"/>
<path d="M308.822 93.8646C310.01 98.3102 309.035 101.386 307.3 103.639C305.716 105.74 303.433 107.171 301.667 108.45C300.784 109.059 299.627 109.059 298.287 108.602C298.287 108.602 298.287 108.602 298.256 108.602C297.891 108.359 297.556 108.085 297.16 107.81C298.165 108.024 299.048 107.932 299.748 107.445C301.545 106.166 303.798 104.735 305.382 102.634C307.117 100.381 308.092 97.3054 306.904 92.8598C305.716 88.4141 303.281 84.2426 300.144 81.6239C300.479 81.6848 300.814 81.8066 301.149 81.9284C304.742 84.4557 307.513 88.9927 308.822 93.8646Z" fill="#BFE7E8"/>
<path d="M283.641 81.3802C283.945 83.0853 283.854 84.6992 283.55 86.1607C283.519 86.2216 283.519 86.2825 283.489 86.3434C283.428 86.5261 283.367 86.7088 283.336 86.8611C283.336 86.8915 283.336 86.8915 283.336 86.8915C282.91 88.3835 282.24 89.7233 281.418 90.8804C278.8 94.6866 275.024 96.7572 275.024 96.7572C273.014 96.879 271.4 96.6963 270.091 96.3613C269.056 96.0873 268.234 95.661 267.533 95.1433C267.746 95.2347 267.959 95.2956 268.173 95.3565C269.482 95.7219 271.096 95.8741 273.105 95.7523C273.105 95.7523 276.912 93.6818 279.5 89.8756C281.205 87.4092 282.393 84.212 281.723 80.3449C280.718 74.3159 278.465 69.8094 274.963 67.282C274.811 67.1603 274.658 67.0689 274.506 66.9776C275.359 67.3125 276.15 67.7692 276.912 68.2869C280.352 70.8446 282.606 75.3512 283.641 81.3802Z" fill="#BFE7E8"/>
<path d="M258.855 104.309C258.124 105.192 257.18 105.922 255.962 106.44C253.618 107.475 251.578 107.628 249.781 107.11C248.868 106.866 248.015 106.44 247.254 105.892C247.467 105.953 247.65 106.044 247.863 106.075C249.659 106.592 251.73 106.44 254.044 105.405C255.232 104.857 256.206 104.156 256.937 103.273C260.865 98.6145 258.733 89.7842 254.41 83.2984C253.374 81.776 252.339 80.6493 251.304 79.8272C251.151 79.7054 250.969 79.5836 250.816 79.4618C251.608 79.7663 252.4 80.1926 253.222 80.8625C254.257 81.6846 255.293 82.8112 256.328 84.3337C260.652 90.8195 262.814 99.6803 258.855 104.309Z" fill="#BFE7E8"/>
<path d="M256.358 117.707C256.511 118.925 256.693 120.934 256.602 123.157C256.602 123.218 256.602 123.309 256.602 123.37C256.602 123.949 256.541 124.558 256.48 125.136C256.48 125.197 256.48 125.288 256.45 125.349C256.176 127.664 255.536 129.947 254.197 131.531C253.374 132.505 252.309 133.205 250.938 133.51C248.259 134.088 245.884 134.119 243.874 133.51C242.961 133.236 242.108 132.84 241.316 132.292C241.53 132.353 241.743 132.444 241.956 132.505C243.966 133.114 246.341 133.084 249.02 132.505C250.421 132.201 251.487 131.5 252.278 130.526C255.354 126.902 254.775 119.625 254.44 116.732C254.227 114.905 252.796 111.799 250.147 109.79C249.995 109.668 249.812 109.546 249.629 109.394C250.299 109.668 250.938 110.003 251.517 110.368C251.7 110.49 251.913 110.642 252.065 110.764C254.714 112.774 256.145 115.88 256.358 117.707Z" fill="#BFE7E8"/>
<path d="M272.957 111.403C272.957 111.403 270.034 111.891 269.547 116.519C269.06 121.147 266.928 130.861 275.667 127.937C284.406 125.014 286.812 122.822 286.081 119.655C285.35 116.519 280.478 108.48 272.957 111.403Z" fill="#87C6CC"/>
<path d="M293.602 121.33C293.602 121.33 298.717 117.006 301.397 120.904C304.076 124.801 306.725 129.886 301.153 131.835C295.581 133.784 290.222 130.526 293.602 121.33Z" fill="#87C6CC"/>
<path d="M259.346 142.523C259.346 140.574 265.679 132.322 272.469 134.728C279.29 137.164 275.636 141.792 276.123 144.441C276.611 147.121 274.175 156.59 268.572 154.642C262.969 152.754 259.346 149.1 259.346 142.523Z" fill="#87C6CC"/>
<defs>
<filter id="filter0_d" x="0" y="0" width="566.281" height="246.92" filterUnits="userSpaceOnUse" color-interpolation-filters="sRGB">
<feFlood flood-opacity="0" result="BackgroundImageFix"/>
<feColorMatrix in="SourceAlpha" type="matrix" values="0 0 0 0 0 0 0 0 0 0 0 0 0 0 0 0 0 0 127 0"/>
<feOffset dx="10" dy="10"/>
<feGaussianBlur stdDeviation="10"/>
<feColorMatrix type="matrix" values="0 0 0 0 0.0184028 0 0 0 0 0.211374 0 0 0 0 0.220833 0 0 0 0.1 0"/>
<feBlend mode="normal" in2="BackgroundImageFix" result="effect1_dropShadow"/>
<feBlend mode="normal" in="SourceGraphic" in2="effect1_dropShadow" result="shape"/>
</filter>
</defs>
</svg>
