<svg width="126" height="101" viewBox="0 0 126 101" fill="none" xmlns="http://www.w3.org/2000/svg">
<g opacity="0.55" clip-path="url(#clip0)">
<path d="M102.448 60.1842L101.583 59.2293C100.861 59.8887 100.139 60.548 99.394 61.1949L100.241 62.1546C100.979 61.5188 101.719 60.8546 102.448 60.1842ZM97.9727 64.1048L97.1555 63.1181C96.395 63.7414 95.6297 64.3473 94.8547 64.9186L95.6184 65.9482C96.417 65.361 97.2059 64.7392 97.9727 64.1048ZM93.1513 67.6549L92.4583 66.5775C91.6105 67.1223 90.7767 67.6166 89.9519 68.0429L90.5505 69.184C91.4051 68.7307 92.2799 68.2157 93.1513 67.6549ZM87.8093 70.4439L87.3272 69.2516C86.4955 69.5864 85.6557 69.858 84.8234 70.0902L84.598 70.1531L84.9178 71.4L85.1606 71.3323C86.0559 71.0919 86.943 70.7883 87.8093 70.4439ZM81.9229 71.9178L81.8097 70.6413C80.8708 70.7257 79.9126 70.7407 78.9524 70.6815L78.8715 71.9655C79.8774 72.0212 80.9098 72.0042 81.9229 71.9178ZM75.8441 71.5299L76.1289 70.2732C75.182 70.0608 74.2788 69.7708 73.4132 69.4143L72.9212 70.5981C73.8423 70.9858 74.8293 71.3085 75.8441 71.5299ZM70.9206 68.0821C70.1265 67.5468 69.4047 66.9353 68.7945 66.2552L67.8507 67.1258C68.5371 67.8781 69.3303 68.5444 70.2068 69.1408L70.9206 68.0821ZM67.1916 63.9927C67.0767 63.7818 66.9743 63.5488 66.8657 63.3268C66.6001 62.7095 66.3864 62.0777 66.2103 61.3793L64.9696 61.688C65.154 62.4495 65.4029 63.1743 65.7004 63.8388C65.8187 64.0954 65.9259 64.3458 66.0616 64.5976L67.1916 63.9927ZM65.7804 58.5654C65.7077 57.7354 65.6739 56.8104 65.6798 55.6595L64.3916 55.6638C64.3953 56.8494 64.4277 57.8028 64.4927 58.6723L65.7804 58.5654ZM65.718 52.715C65.7224 51.8261 65.7289 50.7778 65.6849 49.7156L64.3938 49.7767C64.4455 50.7995 64.4404 51.8193 64.4312 52.6908L65.718 52.715ZM65.3453 46.6896C65.1369 45.6078 64.8487 44.6417 64.444 43.7268L63.2614 44.2436C63.6197 45.0593 63.8838 45.9387 64.0742 46.9227L65.3453 46.6896ZM62.8152 41.0697C62.176 40.2857 61.4077 39.575 60.5389 38.939L59.7919 39.979C60.5734 40.5365 61.2481 41.1799 61.8347 41.8758L62.8152 41.0697ZM57.3305 38.5914L57.862 37.4153C56.9867 37.0241 56.0233 36.6855 54.9892 36.3947L54.6427 37.6313C55.6152 37.9019 56.5169 38.2203 57.3305 38.5914ZM51.8242 37.0067L52.041 35.7408C51.1087 35.5805 50.1291 35.452 49.0629 35.3476L48.9361 36.635C49.9691 36.7206 50.9203 36.8477 51.8242 37.0067ZM46.0188 36.393L46.0887 35.1028L45.247 35.0666C44.5586 35.0438 43.8542 34.9973 43.1498 34.9509L43.0689 36.2349C43.7843 36.2876 44.495 36.3229 45.1945 36.352L46.0188 36.393ZM40.0788 35.9665L40.2277 34.6916C39.185 34.5713 38.2464 34.422 37.3549 34.2409L37.0986 35.4991C38.0406 35.6941 39.0077 35.8448 40.0788 35.9665ZM34.1783 34.744L34.5754 33.5213C33.6216 33.2174 32.7338 32.8484 31.9452 32.433L31.3472 33.5716C32.2023 34.0245 33.1518 34.4137 34.1783 34.744ZM29.606 30.8805C28.8842 30.269 28.2629 29.5827 27.7423 28.8216L26.6745 29.5493C27.2589 30.4047 27.9612 31.1805 28.7592 31.8642L29.606 30.8805Z" fill="white"/>
<path d="M102.347 66.4539L101.064 66.3445L101.64 60.0357L95.3088 59.9145L95.3329 58.6277L103.043 58.7662L102.347 66.4539Z" fill="white"/>
</g>
<defs>
<clipPath id="clip0">
<rect width="51.077" height="114.869" fill="white" transform="matrix(-0.491099 0.871104 0.871104 0.491099 25.084 0)"/>
</clipPath>
</defs>
</svg>
