<svg width="146" height="115" viewBox="0 0 146 115" fill="none" xmlns="http://www.w3.org/2000/svg">
<g opacity="0.55" clip-path="url(#clip0)">
<path d="M33.7627 26.8375C34.6205 27.1714 35.4569 27.5202 36.2924 27.8951L35.8092 28.9782C34.9943 28.6145 34.1579 28.2657 33.3262 27.9327L33.7627 26.8375ZM38.7811 29.077C39.4708 29.4259 40.1502 29.7693 40.8287 30.1387L41.2194 30.3515L40.6437 31.3842L40.2633 31.1771C39.6053 30.8188 38.9315 30.4652 38.2624 30.1275L38.7811 29.077ZM42.9587 32.7381L43.5755 31.7278C44.355 32.2055 45.1289 32.6936 45.886 33.2125L45.228 34.2004C44.4812 33.6871 43.7279 33.2103 42.9587 32.7381ZM47.4423 35.7394L48.1461 34.7897C48.8817 35.3236 49.6108 35.8939 50.3296 36.4586L49.5903 37.3756C48.8715 36.8109 48.1677 36.2677 47.4423 35.7394ZM51.6459 39.1081L52.4263 38.2134C53.1125 38.8137 53.793 39.4242 54.4624 40.0552L53.6465 40.9172C52.9874 40.2917 52.3274 39.6924 51.6459 39.1081ZM55.5499 42.8067L56.3957 41.9877C57.038 42.644 57.6588 43.3153 58.2637 43.9912L57.3824 44.7776C56.798 44.1128 56.1819 43.4574 55.5499 42.8067ZM59.1439 46.8297L60.0608 46.0761C60.6386 46.7773 61.2053 47.499 61.7505 48.2358L60.8037 48.9465C60.2632 48.2256 59.7115 47.5253 59.1439 46.8297ZM62.3719 51.1333L63.3486 50.4656C63.8723 51.2172 64.3746 51.9839 64.8553 52.7655L63.8487 53.3903C63.3726 52.6245 62.8909 51.8691 62.3719 51.1333ZM65.2292 55.7015L66.2555 55.1141C66.7045 55.9051 67.1423 56.7166 67.5539 57.5272L66.5033 58.0614C66.0963 57.2667 65.6735 56.4766 65.2292 55.7015ZM67.6803 60.5017L68.7506 60.0049C69.1304 60.8249 69.5047 61.6551 69.8734 62.4957L68.804 62.9663C68.44 62.1417 68.0658 61.3114 67.6803 60.5017ZM69.8848 65.4609L70.9645 64.9958L71.0421 65.1714C71.3818 65.9428 71.7056 66.7189 72.0453 67.4904L70.96 67.9657C70.6204 67.1943 70.2807 66.4229 69.9569 65.6468L69.8848 65.4609ZM72.0885 70.4462L73.1588 69.9494C73.5386 70.7694 73.9241 71.5791 74.3413 72.3794L73.2907 72.9136C72.8688 72.0974 72.4786 71.2718 72.0885 70.4462ZM74.5891 75.3267L75.6154 74.7393C76.0747 75.5359 76.5452 76.3119 77.0128 77.0197L76.0314 77.6716C75.5488 76.9423 75.0578 76.1551 74.5891 75.3267ZM77.6501 79.9126L78.5819 79.1804C79.1439 79.8863 79.733 80.5669 80.3238 81.1952L79.4677 82.0086C78.846 81.3635 78.2317 80.6558 77.6501 79.9126ZM81.4908 83.9233L82.2506 83.0175C82.9274 83.5859 83.6368 84.1189 84.3687 84.6107L83.706 85.5828C82.9378 85.0844 82.1928 84.5188 81.4908 83.9233ZM86.6463 85.9843C87.423 86.3938 88.237 86.7838 89.0528 87.1214L88.6061 88.211C87.7538 87.8669 86.909 87.4602 86.0912 87.0282L86.6463 85.9843ZM91.5674 88.0108C92.4177 88.2606 93.2849 88.4795 94.1538 88.6462L93.9351 89.8066C93.0297 89.6335 92.1261 89.4081 91.2394 89.1518L91.5674 88.0108ZM96.7811 89.0105C97.6687 89.094 98.5581 89.1251 99.4381 89.1245L99.4493 90.3035C98.5272 90.3079 97.5957 90.2805 96.6717 90.1905L96.7811 89.0105ZM102.089 88.9554C102.973 88.8501 103.853 88.7028 104.709 88.5023L104.972 89.6587C104.074 89.863 103.147 90.0243 102.237 90.1286L102.089 88.9554ZM107.254 87.769C108.076 87.4835 108.9 87.1456 109.709 86.7601L110.222 87.8257C109.38 88.2206 108.519 88.5781 107.65 88.8776L107.254 87.769ZM112.037 85.4954C112.792 85.0399 113.532 84.5368 114.237 84.001L114.948 84.9478C114.216 85.5088 113.438 86.0316 112.657 86.5123L112.037 85.4954ZM116.272 82.2964C116.922 81.6906 117.546 81.0577 118.135 80.3921L119.014 81.1771C118.398 81.868 117.751 82.542 117.08 83.1628L116.272 82.2964ZM123.39 71.231L124.514 71.5899C124.238 72.4655 123.898 73.3336 123.528 74.185L122.445 73.7018C122.797 72.9075 123.12 72.0702 123.39 71.231ZM119.8 78.3132C120.323 77.5981 120.8 76.8448 121.24 76.0849L122.267 76.6709C121.81 77.4616 121.301 78.2504 120.756 79.0066L119.8 78.3132Z" fill="white"/>
<path d="M117.967 73.3827L118.501 74.4333L123.7 71.8129L125.942 77.1924L127.032 76.733L124.307 70.1841L117.967 73.3827Z" fill="white"/>
</g>
<defs>
<clipPath id="clip0">
<rect width="134.582" height="56.703" fill="white" transform="translate(27.1172) rotate(28.5698)"/>
</clipPath>
</defs>
</svg>
