<svg width="133" height="138" viewBox="0 0 133 138" fill="none" xmlns="http://www.w3.org/2000/svg">
<g opacity="0.55">
<path d="M46.0933 62.5857L46.6728 61.5828L48.5706 62.7388L47.9697 63.7277L46.0933 62.5857ZM50.2518 65.1094L50.8371 64.1164C51.5959 64.5737 52.3588 65.0153 53.1216 65.457L52.5421 66.4598C51.7833 66.0025 51.0204 65.5609 50.2518 65.1094ZM54.89 67.75L55.4324 66.7291C56.2092 67.1492 56.9901 67.5538 57.7751 67.9426L57.264 68.9717C56.479 68.5828 55.6824 68.1742 54.89 67.75ZM59.6997 70.1175L60.1679 69.0605C60.971 69.4123 61.7781 69.7484 62.5893 70.0688L62.1739 71.1479C61.347 70.8234 60.5242 70.4832 59.6997 70.1175ZM64.7162 72.0456L65.069 70.9501C65.9023 71.2178 66.7595 71.4582 67.5837 71.6649L67.2993 72.7866C66.4496 72.5816 65.5809 72.3214 64.7162 72.0456ZM69.9472 73.3439L70.1434 72.2075C70.9996 72.3557 71.868 72.4569 72.7348 72.5326L72.6424 73.6876C71.7344 73.6096 70.8347 73.5002 69.9472 73.3439ZM75.3461 73.7744L75.3306 72.6162C76.2021 72.6095 77.076 72.5616 77.9366 72.4684L78.0543 73.6198C77.1681 73.7147 76.253 73.7602 75.3461 73.7744ZM80.7356 73.2156L80.5059 72.0768C81.3713 71.9013 82.2136 71.6862 83.017 71.4275L83.3727 72.5323C82.5182 72.7943 81.6364 73.0326 80.7356 73.2156ZM85.9087 71.5633L85.4386 70.5124C86.111 70.2111 86.7603 69.8704 87.3823 69.5059L87.7279 69.3034L88.332 70.289L87.9667 70.5031C87.3151 70.885 86.6206 71.239 85.9087 71.5633ZM89.818 67.7999C90.4791 67.2532 91.1056 66.6473 91.6694 66.025L92.531 66.7935C91.9294 67.4644 91.2593 68.1091 90.5546 68.6946L89.818 67.7999Z" fill="white"/>
<path d="M85.9709 65.717L86.012 66.8735L91.7061 66.6535L91.5159 72.3493L92.6676 72.3906L92.8981 65.4509L85.9709 65.717Z" fill="white"/>
</g>
</svg>
