<svg width="16" height="16" viewBox="0 0 16 16" fill="none" xmlns="http://www.w3.org/2000/svg">
<path fill-rule="evenodd" clip-rule="evenodd" d="M6.57494 12C6.39094 12 6.21494 11.924 6.08894 11.79L2.84694 8.33734C2.59427 8.06934 2.60827 7.64734 2.87627 7.39534C3.14494 7.14334 3.56694 7.15667 3.81827 7.42467L6.56827 10.352L12.1736 4.21734C12.4229 3.94467 12.8443 3.92667 13.1163 4.17467C13.3876 4.42267 13.4063 4.84467 13.1583 5.116L7.06694 11.7827C6.94227 11.92 6.76494 11.9987 6.5796 12H6.57494Z" fill="#231F20"/>
<mask id="mask0" mask-type="alpha" maskUnits="userSpaceOnUse" x="2" y="4" width="12" height="8">
<path fill-rule="evenodd" clip-rule="evenodd" d="M6.57494 12C6.39094 12 6.21494 11.924 6.08894 11.79L2.84694 8.33734C2.59427 8.06934 2.60827 7.64734 2.87627 7.39534C3.14494 7.14334 3.56694 7.15667 3.81827 7.42467L6.56827 10.352L12.1736 4.21734C12.4229 3.94467 12.8443 3.92667 13.1163 4.17467C13.3876 4.42267 13.4063 4.84467 13.1583 5.116L7.06694 11.7827C6.94227 11.92 6.76494 11.9987 6.5796 12H6.57494Z" fill="white"/>
</mask>
<g mask="url(#mask0)">
<rect width="16" height="16" fill="white"/>
</g>
</svg>
