<svg width="72" height="105" viewBox="0 0 72 105" fill="none" xmlns="http://www.w3.org/2000/svg">
<path d="M40.5671 45.8742C39.9455 45.7859 39.9455 45.4327 39.5902 44.1966C39.235 42.9606 40.7447 41.9894 40.7447 41.9894C40.7447 41.9894 41.6327 41.4596 41.2775 41.1064C40.9436 40.7745 38.5743 41.9999 38.2866 42.15C38.2671 42.1606 38.2458 42.173 38.2244 42.1765C38.0912 42.2013 38.0113 42.2472 37.9616 42.2948C37.8852 42.3725 37.887 42.4979 37.958 42.5827C40.2882 45.3497 39.4126 51.2599 39.235 51.9663C39.0983 52.5084 37.0149 56.4691 36.8373 57.352C36.6597 58.235 37.1979 59.0155 37.7254 58.9413C38.347 58.853 38.1268 57.2867 38.791 56.116C38.9153 55.8988 40.1231 54.0853 40.2119 52.7609C40.2563 52.0969 40.6275 51.7455 40.9223 51.6007C41.0253 51.5495 41.1425 51.5389 41.2544 51.5619C43.2685 51.9981 47.2931 50.9121 46.4282 47.8166C45.5561 44.6928 41.2704 45.9748 40.5671 45.8742ZM43.5882 49.4164C42.6824 48.9273 43.4372 47.9473 43.4372 47.9473C44.343 47.2939 45.0961 48.2739 45.0961 48.6006C45.0961 48.9273 44.4922 49.9073 43.5882 49.4164Z" fill="#3FA5AA"/>
<path d="M20.4966 42.6957C22.095 40.5767 24.1002 38.8215 24.7591 38.4577C25.5584 38.0162 25.4696 37.7514 27.9561 37.7514C29.4072 37.7514 29.8299 37.3911 29.9311 37.0909C30.0039 36.8737 29.837 36.646 29.6078 36.6265C29.3432 36.6036 28.8548 36.6036 27.9561 36.6919C26.5423 36.8331 26.8904 35.9855 25.8248 34.3963C24.7591 32.807 23.3383 32.2773 21.7398 32.4539C20.1413 32.6305 19.2533 33.8665 19.4309 35.6324C19.6085 37.3982 21.5622 38.6343 21.5622 38.6343C21.5622 38.6343 21.9174 38.8109 21.9174 39.3406C21.9174 39.8704 21.2958 40.4884 20.9406 40.8416C20.5854 41.1947 19.7861 41.4596 18.8981 41.283C18.01 41.1064 18.01 40.0469 17.6548 39.6938C17.2996 39.3406 17.2108 40.4884 17.2996 41.1064C17.4008 41.8057 18.8981 44.8147 20.4966 42.6957ZM22.4502 34.5729C23.5159 34.2197 23.6935 34.926 23.8711 35.2792C24.0487 35.6324 23.5159 36.5153 22.9831 36.5153C22.4502 36.5153 22.095 36.3387 21.9174 35.6324C21.7398 34.926 22.4502 34.5729 22.4502 34.5729Z" fill="#3FA5AA"/>
<path d="M26.3583 28.5691C26.3583 28.5691 28.5127 29.0794 29.9371 30.0224C30.5641 30.4373 31.0134 31.0677 31.2035 31.7917C31.3935 32.5192 31.6191 33.667 31.509 34.7495C31.4077 35.7489 32.9352 34.5358 33.0932 33.0543C33.1128 32.8777 33.0986 32.7011 33.0613 32.5263C32.8606 31.5533 31.8038 28.3925 26.5342 28.3925C26.5359 28.3925 26.1807 28.3925 26.3583 28.5691Z" fill="#3FA5AA"/>
<path d="M49.7433 42.8016C48.0934 40.1758 45.4523 41.5479 45.4523 41.5479C45.0971 41.901 45.8964 42.1659 45.8964 42.1659C49.3402 43.5927 48.7256 46.863 48.3633 48.0673C48.3278 48.1874 48.4823 48.2757 48.5658 48.1803C49.5941 47.0202 50.0577 44.7846 49.9493 43.6439C49.9227 43.349 49.9014 43.0541 49.7433 42.8016Z" fill="#3FA5AA"/>
<path d="M44.4741 55.5862C42.1652 55.7628 41.9876 59.1161 41.9876 59.1179C40.6626 62.1904 38.1477 62.9409 37.1176 63.1228C36.7659 63.1846 36.4107 63.2428 36.0786 63.3735C33.8336 64.2582 32.3186 64.1628 31.3524 63.8273C30.5052 63.5324 29.9511 62.7148 29.9813 61.8231C30.0417 59.9866 29.6403 59.1567 29.3295 58.468C29.1874 58.1537 28.9991 57.8641 28.7682 57.6081C26.6973 55.3213 26.9513 54.4049 27.0454 54.2142C27.0561 54.193 27.0703 54.1735 27.0845 54.1541C28.3278 52.5878 30.436 52.5861 30.4431 52.5861C30.4431 52.5861 33.9952 52.9392 34.8833 50.8202C35.7713 48.7012 33.64 45.5228 31.6863 44.2867C29.7326 43.0506 25.4701 43.2272 24.582 45.5228C23.694 47.8183 25.026 47.5517 25.7365 50.7302C26.4469 53.9087 23.9604 53.3789 23.9604 53.3789C22.6283 52.9375 21.0299 53.4672 20.6746 53.4672C20.3194 53.4672 16.5897 55.0565 14.8136 53.8204C13.0375 52.5843 12.5935 50.377 12.5935 49.8473C12.5935 49.5771 12.4159 49.1409 12.2312 49.1197C12.0607 49.1409 11.8831 49.4941 11.8831 49.8473C11.8742 50.6737 12.1086 53.5272 13.4815 54.4384C15.08 55.4979 16.7211 55.6551 17.3001 56.9989C17.5665 57.6169 16.9449 59.8242 20.497 61.7666C24.0474 63.7072 25.4683 62.6513 25.4701 62.6495C25.4718 62.6477 26.1787 61.2369 24.2268 60.8837C22.2731 60.5305 20.8522 59.1179 20.8522 59.1179C18.3675 56.6475 20.6729 55.4114 20.6746 55.4096C25.4079 54.6662 27.2586 57.1366 27.9406 58.6782C28.1928 59.245 28.2638 59.8719 28.191 60.4881C27.9317 62.7307 28.9281 64.3253 29.4645 64.6802C29.5053 64.7085 29.9333 64.9416 29.9795 64.9592C32.1286 65.7397 33.6631 65.4678 38.256 64.2388C42.8738 63.0027 42.9751 60.4987 43.2291 60.0008C43.5328 59.4057 44.602 58.491 45.1721 58.016C45.4953 57.7476 45.7174 57.3785 45.815 56.9706C45.9713 56.3155 45.9038 55.4767 44.4741 55.5862ZM27.2888 46.2344C27.7861 45.8812 29.0613 45.1484 30.4431 45.6976C32.2192 46.4039 32.3968 47.9931 32.3968 47.9931C32.3968 47.9931 32.5744 48.5229 31.8639 48.3463C31.1535 48.1697 29.9103 47.64 29.555 47.4634C29.2265 47.2992 28.1377 47.2886 27.2728 46.5875C27.1591 46.4957 27.1698 46.3191 27.2888 46.2344Z" fill="#3FA5AA"/>
<path d="M12.8607 59.6476C11.5287 58.853 10.8182 56.5575 10.1078 55.8511C9.7064 55.4521 9.47551 55.4468 9.34941 55.5192C9.26238 55.5686 9.24462 55.6728 9.23041 55.7717C8.68693 59.7359 13.0437 61.4187 13.5712 61.9432C14.1928 62.5612 15.2211 62.5983 15.3472 62.4729C15.6136 62.2081 14.5977 60.6842 12.8607 59.6476Z" fill="#3FA5AA"/>
<path d="M23.605 22.6536C23.9052 22.7524 24.5375 22.7101 24.8483 22.6536C25.6706 22.5035 26.889 22.0973 28.0452 20.1814C28.0452 20.1814 28.5319 18.6469 29.6437 18.239C29.8408 18.1666 30.3541 17.9194 30.3541 17.7092C30.3541 17.5327 30.3541 17.3561 29.9989 17.1795C29.34 16.851 28.2228 17.5327 28.0452 17.7092C27.5941 18.1578 26.9796 18.4156 26.3579 19.7399C26.3579 19.7399 25.6067 21.1385 24.5819 20.7994C24.5765 20.7977 24.5712 20.7959 24.5659 20.7941C24.1077 20.6423 23.6032 20.7182 23.2054 20.9937C22.511 21.4757 22.0065 22.1238 23.605 22.6536Z" fill="#3FA5AA"/>
<path d="M37.5638 96.7247C34.9014 103.746 40.4765 103.71 41.6132 103.634C41.75 103.626 41.8885 103.648 42.0182 103.696C46.4797 105.381 48.9378 104.277 49.8009 103.714C50.0265 103.567 50.2982 103.521 50.5629 103.574C51.2005 103.701 52.4615 103.606 53.3549 101.321C54.5981 98.1426 51.4012 94.9641 50.5131 92.8451C49.6251 90.7262 51.2236 84.016 52.6444 80.4844C53.9783 77.1681 53.5911 71.83 53.5378 71.1891C53.5343 71.1449 53.5343 71.1008 53.5378 71.0566C53.8167 67.0005 52.902 64.2635 52.577 63.4406C52.5095 63.2676 52.4917 63.0804 52.529 62.8985C52.7368 61.8867 53.346 58.3639 52.291 56.116C51.0478 53.4672 51.2254 52.0546 51.403 50.8185C51.5806 49.5824 52.8238 49.759 52.8238 49.759C55.5075 49.9003 56.3937 48.8125 56.6442 48.3605C56.6975 48.2651 56.7294 48.1592 56.749 48.0514C56.9497 46.9231 57.9301 46.1532 58.2373 45.936C58.2924 45.8971 58.3492 45.8653 58.4096 45.8389C59.5712 45.3427 62.1536 44.2019 62.6757 43.9724C62.7379 43.9441 62.8036 43.9247 62.8693 43.9123C68.0679 42.8723 71.311 36.676 71.771 35.7489C71.8083 35.673 71.8368 35.5935 71.8528 35.5105C72.6058 31.6469 70.2418 29.8793 69.9115 29.6533C69.8884 29.6374 69.8671 29.625 69.8422 29.6109C64.3328 26.4536 54.9498 27.5113 52.4668 28.7457C49.9803 29.9817 48.9147 28.7457 48.9147 28.7457C46.073 25.3906 40.5671 22.9184 38.791 21.8589C37.1268 20.8665 37.958 19.408 38.0682 19.2279C38.0788 19.2102 38.0877 19.1943 38.0984 19.1766C40.2368 15.2124 39.1338 9.87957 38.9846 9.21386C38.974 9.16795 38.9615 9.12557 38.9455 9.08142C37.0078 4.00644 33.3562 1.65789 32.6831 1.26058C32.6085 1.21643 32.541 1.15993 32.4806 1.09812C31.1166 -0.309241 29.4115 -0.005519 28.9604 0.107494C28.8929 0.125152 28.8272 0.148108 28.7651 0.179893C21.9733 3.52613 19.3057 9.35336 18.4087 12.0039C18.1636 12.7261 18.0695 13.4907 18.1494 14.2482C18.3839 16.4643 17.6344 18.02 17.288 18.6045C17.1992 18.7546 17.0713 18.88 16.9168 18.9612C14.3575 20.2944 15.1994 22.5688 15.3308 22.8849C15.3432 22.9131 15.3539 22.9414 15.3628 22.9714C16.5865 26.8492 15.091 31.2549 14.718 32.2508C14.6683 32.385 14.5866 32.5051 14.4818 32.604C9.1447 37.686 9.83915 43.2413 9.48748 44.465C9.13227 45.7011 3.44881 51.5283 3.2712 55.06C3.0936 58.5917 1.31752 62.4765 1.31752 62.4765C1.31752 62.4765 -0.549143 67.1524 0.161288 74.2157C0.87172 81.279 0.848631 82.0683 2.11498 87.1062C2.6478 89.2252 2.29258 90.4613 2.29258 91.5208C2.29258 92.8346 1.35304 93.299 0.87172 94.5227C-0.172615 97.1767 0.429477 99.2268 0.575115 99.6506C0.596428 99.7107 0.60886 99.7707 0.615964 99.8325C0.985389 102.653 4.04202 103.029 4.84836 103.078C4.98512 103.087 5.11655 103.126 5.23733 103.189C9.49459 105.435 12.0095 103.799 12.6773 103.248C12.8052 103.143 12.9597 103.075 13.1213 103.048C15.3965 102.683 15.7926 101.259 15.8618 100.775C15.8796 100.654 15.9222 100.541 15.9826 100.433C17.5935 97.5829 16.2206 92.8169 15.6984 91.6073C15.3201 90.7279 15.7482 90.3854 16.0288 90.26C16.1229 90.2176 16.2242 90.1946 16.3272 90.1858C18.629 89.9898 18.9877 90.6379 20.0534 90.8144C21.4973 91.0546 22.9093 91.2824 24.4829 91.4395C25.0637 91.4978 25.648 91.4978 26.2288 91.4378C27.3904 91.3177 29.1718 90.9063 30.177 90.4613C31.7755 89.755 35.6243 90.5655 37.8142 88.872C39.0201 87.9397 38.466 92.3949 38.1214 94.6357C38.0113 95.3509 37.8195 96.0484 37.5638 96.7247ZM66.8531 39.3406C66.4979 39.6938 64.8994 41.1064 63.6561 41.283C62.4129 41.4596 57.7951 43.2254 57.0846 44.9913C56.3742 46.7571 54.2429 47.8166 52.9997 47.4634C51.7564 47.1103 50.1579 49.4058 50.1579 49.4058C50.1579 49.4058 48.9147 50.8185 49.0923 52.5843C49.2699 54.3501 51.046 58.235 50.8684 60.0008C50.6908 61.7666 49.6251 64.5919 48.7371 64.9451C47.9307 65.2665 47.8561 66.4619 50.3835 66.1476C50.8755 66.0858 51.3355 66.4072 51.4456 66.8893C51.9802 69.2431 53.1222 75.8968 50.7032 81.8705C50.6961 81.8882 50.689 81.9059 50.6801 81.9235C50.4901 82.3314 48.0213 87.6925 47.8508 91.2577C47.6732 94.9659 50.6925 97.0849 51.0478 98.321C51.3994 99.5465 51.9269 101.291 50.2059 101.494C50.1295 101.503 50.0549 101.521 49.9839 101.549C49.7832 101.628 49.396 101.837 48.7388 102.382C47.6732 103.265 47.1404 101.146 46.4299 100.617C45.7941 100.143 45.2595 101.604 45.0091 101.853C44.8315 102.029 43.4106 102.382 43.0554 100.97C42.7002 99.5571 42.345 99.2039 41.8121 99.3805C41.2793 99.5571 40.9241 100.793 40.3913 100.97C39.8585 101.146 38.26 100.263 38.6152 97.9678C38.9704 95.6722 40.7465 93.3767 40.7465 91.964C40.7465 91.4343 40.3913 85.0773 40.3913 82.9583C40.3913 80.8393 41.8121 76.6013 42.345 76.4247C42.8707 76.2499 41.4924 75.2151 40.0911 77.5672C40.0538 77.629 40.0254 77.6944 40.0023 77.7632C39.91 78.0511 39.6471 78.8845 39.5032 79.6032C39.3256 80.4861 39.3256 84.0178 36.4839 86.1368C33.6422 88.2558 30.09 88.0792 29.5572 87.726C29.0244 87.3729 27.6035 88.7855 26.005 88.6089C24.4066 88.4324 20.144 88.7855 17.8351 84.5475C15.5262 80.3095 14.4605 81.369 14.2829 78.5437C14.1053 75.7184 10.5531 76.4247 10.7307 76.9545C10.9083 77.4842 12.3292 79.0735 12.862 80.3095C13.3949 81.5456 13.9277 82.7817 13.9277 84.5475C13.9277 86.3134 12.6844 90.1982 13.3949 92.4938C14.1053 94.7893 14.9933 97.2615 14.9933 97.7912C14.9933 98.2733 15.583 100.954 13.2723 100.627C12.878 100.571 12.5175 100.387 12.2049 100.142C11.9882 99.972 11.7182 99.8643 11.6188 100.263C11.4429 100.963 10.3951 102.875 8.4769 101.883C8.43427 101.861 8.39342 101.835 8.35435 101.808C8.08793 101.616 7.11109 100.811 7.16437 99.3946C7.17147 99.2304 7.05248 99.0732 6.88908 99.0503C6.73278 99.0255 6.55518 99.1138 6.46637 99.5553C6.46637 99.5553 6.46637 101.054 4.93717 101.567C4.60326 101.678 4.22496 101.607 3.97453 101.362C3.66372 101.058 3.37955 100.475 3.62464 99.3787C3.97986 97.7895 3.09182 98.1426 2.559 97.6129C2.20378 97.2597 2.20378 95.4939 3.62464 94.611C5.04551 93.7281 5.22312 87.1945 4.15747 85.4287C3.13267 83.73 2.27127 75.3246 2.20733 74.6942C2.20556 74.6695 2.20201 74.6465 2.19668 74.6218C2.10254 74.1115 1.06709 68.196 2.47907 64.9433C2.52703 64.8321 2.59985 64.7332 2.68865 64.6484C3.07583 64.2741 4.21963 63.0804 4.51268 61.7684C4.8679 60.1791 4.15747 57.0006 6.82159 52.4095C9.48571 47.8184 13.0379 44.1101 13.0379 43.4038C13.0379 42.6975 11.7946 39.6955 14.1035 37.2234C16.4124 34.7512 17.3005 31.9259 17.4781 28.3943C17.6557 24.8626 18.8989 24.8626 19.0765 24.3329C19.144 24.1333 19.1351 23.9603 19.0979 23.8208C19.0517 23.646 18.9451 23.4941 18.8083 23.3758C18.4833 23.0933 17.4301 22.0602 18.1885 21.1544C19.0765 20.0949 20.3198 19.7417 19.9646 17.4461C19.6129 15.17 20.6572 8.89601 27.9552 3.10763C28.0884 3.00168 28.25 2.93282 28.4187 2.90809C29.392 2.76153 32.6689 2.70326 35.0613 7.91068C37.903 14.0911 35.0613 20.9778 34.5284 21.5075C33.9956 22.0373 35.2389 22.9202 35.7717 22.9202C36.2992 22.9202 42.583 25.1752 48.7459 31.7458C48.8738 31.8818 49.0372 31.9789 49.2184 32.023C49.7121 32.1466 50.7085 32.2438 51.4776 31.345C51.5539 31.2549 51.641 31.1772 51.7458 31.1225C52.0992 30.9353 52.9784 30.5539 54.0653 30.6881C55.4826 30.8647 57.9585 27.529 68.361 31.0112C68.4285 31.0342 68.496 31.0642 68.5564 31.1013C68.9382 31.3344 70.2276 32.2649 70.2276 34.2197C70.2276 36.5153 67.2083 38.9874 66.8531 39.3406Z" fill="#3FA5AA"/>
<path d="M52.1936 35.5423C51.929 35.5988 51.7514 35.846 51.7443 36.1162C51.7301 36.8208 51.7692 38.5848 52.4672 39.6955C53.3552 41.1082 53.1776 43.0506 53 43.4038C52.8224 43.757 53.8791 43.7552 54.2432 42.3443C54.6038 40.9458 53.8649 40.2394 53.5328 39.3424C53.3392 38.8179 53.0888 38.7243 52.8224 37.9297C52.5986 37.2605 53.2664 36.2522 53 35.8107C52.8561 35.5723 52.5027 35.4752 52.1936 35.5423Z" fill="#3FA5AA"/>
</svg>
