<svg width="151" height="151" viewBox="0 0 151 151" fill="none" xmlns="http://www.w3.org/2000/svg">
<g opacity="0.15">
<circle cx="124.044" cy="2.18577" r="2.18577" transform="rotate(90 124.044 2.18577)" fill="white"/>
<circle cx="124.044" cy="26.5574" r="2.18577" transform="rotate(90 124.044 26.5574)" fill="white"/>
<circle cx="75.3004" cy="2.18577" r="2.18577" transform="rotate(90 75.3004 2.18577)" fill="white"/>
<circle cx="75.3004" cy="26.5574" r="2.18577" transform="rotate(90 75.3004 26.5574)" fill="white"/>
<circle cx="148.415" cy="2.18577" r="2.18577" transform="rotate(90 148.415 2.18577)" fill="white"/>
<circle cx="148.415" cy="26.5574" r="2.18577" transform="rotate(90 148.415 26.5574)" fill="white"/>
<circle cx="99.672" cy="2.18577" r="2.18577" transform="rotate(90 99.672 2.18577)" fill="white"/>
<circle cx="99.672" cy="26.5574" r="2.18577" transform="rotate(90 99.672 26.5574)" fill="white"/>
<circle cx="50.9288" cy="2.18577" r="2.18577" transform="rotate(90 50.9288 2.18577)" fill="white"/>
<circle cx="50.9288" cy="26.5574" r="2.18577" transform="rotate(90 50.9288 26.5574)" fill="white"/>
<circle cx="26.5573" cy="2.18577" r="2.18577" transform="rotate(90 26.5573 2.18577)" fill="white"/>
<circle cx="26.5573" cy="26.5574" r="2.18577" transform="rotate(90 26.5573 26.5574)" fill="white"/>
<circle cx="2.18575" cy="2.18577" r="2.18577" transform="rotate(90 2.18575 2.18577)" fill="white"/>
<circle cx="2.18575" cy="26.5574" r="2.18577" transform="rotate(90 2.18575 26.5574)" fill="white"/>
<circle cx="124.044" cy="99.6719" r="2.18577" transform="rotate(90 124.044 99.6719)" fill="white"/>
<circle cx="124.044" cy="124.043" r="2.18577" transform="rotate(90 124.044 124.043)" fill="white"/>
<circle cx="75.3004" cy="99.6719" r="2.18577" transform="rotate(90 75.3004 99.6719)" fill="white"/>
<circle cx="75.3004" cy="124.043" r="2.18577" transform="rotate(90 75.3004 124.043)" fill="white"/>
<circle cx="148.415" cy="99.6719" r="2.18577" transform="rotate(90 148.415 99.6719)" fill="white"/>
<circle cx="148.415" cy="124.043" r="2.18577" transform="rotate(90 148.415 124.043)" fill="white"/>
<circle cx="99.672" cy="99.6719" r="2.18577" transform="rotate(90 99.672 99.6719)" fill="white"/>
<circle cx="99.672" cy="124.043" r="2.18577" transform="rotate(90 99.672 124.043)" fill="white"/>
<circle cx="50.9288" cy="99.6719" r="2.18577" transform="rotate(90 50.9288 99.6719)" fill="white"/>
<circle cx="50.9288" cy="124.043" r="2.18577" transform="rotate(90 50.9288 124.043)" fill="white"/>
<circle cx="26.5573" cy="99.6719" r="2.18577" transform="rotate(90 26.5573 99.6719)" fill="white"/>
<circle cx="26.5573" cy="124.043" r="2.18577" transform="rotate(90 26.5573 124.043)" fill="white"/>
<circle cx="2.18575" cy="99.6719" r="2.18577" transform="rotate(90 2.18575 99.6719)" fill="white"/>
<circle cx="2.18575" cy="124.043" r="2.18577" transform="rotate(90 2.18575 124.043)" fill="white"/>
<circle cx="124.044" cy="50.9289" r="2.18577" transform="rotate(90 124.044 50.9289)" fill="white"/>
<circle cx="124.044" cy="75.3004" r="2.18577" transform="rotate(90 124.044 75.3004)" fill="white"/>
<circle cx="75.3004" cy="50.9289" r="2.18577" transform="rotate(90 75.3004 50.9289)" fill="white"/>
<circle cx="75.3004" cy="75.3004" r="2.18577" transform="rotate(90 75.3004 75.3004)" fill="white"/>
<circle cx="148.415" cy="50.9289" r="2.18577" transform="rotate(90 148.415 50.9289)" fill="white"/>
<circle cx="148.415" cy="75.3004" r="2.18577" transform="rotate(90 148.415 75.3004)" fill="white"/>
<circle cx="99.672" cy="50.9289" r="2.18577" transform="rotate(90 99.672 50.9289)" fill="white"/>
<circle cx="99.672" cy="75.3004" r="2.18577" transform="rotate(90 99.672 75.3004)" fill="white"/>
<circle cx="50.9288" cy="50.9289" r="2.18577" transform="rotate(90 50.9288 50.9289)" fill="white"/>
<circle cx="50.9288" cy="75.3004" r="2.18577" transform="rotate(90 50.9288 75.3004)" fill="white"/>
<circle cx="26.5573" cy="50.9289" r="2.18577" transform="rotate(90 26.5573 50.9289)" fill="white"/>
<circle cx="26.5573" cy="75.3004" r="2.18577" transform="rotate(90 26.5573 75.3004)" fill="white"/>
<circle cx="2.18575" cy="50.9289" r="2.18577" transform="rotate(90 2.18575 50.9289)" fill="white"/>
<circle cx="2.18575" cy="75.3004" r="2.18577" transform="rotate(90 2.18575 75.3004)" fill="white"/>
<circle cx="124.044" cy="148.415" r="2.18577" transform="rotate(90 124.044 148.415)" fill="white"/>
<circle cx="75.3004" cy="148.415" r="2.18577" transform="rotate(90 75.3004 148.415)" fill="white"/>
<circle cx="148.415" cy="148.415" r="2.18577" transform="rotate(90 148.415 148.415)" fill="white"/>
<circle cx="99.672" cy="148.415" r="2.18577" transform="rotate(90 99.672 148.415)" fill="white"/>
<circle cx="50.9288" cy="148.415" r="2.18577" transform="rotate(90 50.9288 148.415)" fill="white"/>
<circle cx="26.5573" cy="148.415" r="2.18577" transform="rotate(90 26.5573 148.415)" fill="white"/>
<circle cx="2.18575" cy="148.415" r="2.18577" transform="rotate(90 2.18575 148.415)" fill="white"/>
</g>
</svg>
