<svg width="205" height="187" viewBox="0 0 205 187" fill="none" xmlns="http://www.w3.org/2000/svg">
<path opacity="0.15" d="M136.456 121.951L136.455 121.952C127.887 133.245 127.259 143.578 126.762 151.748C126.734 152.212 126.706 152.668 126.677 153.117C126.408 157.322 126.053 160.811 124.534 163.557C123.039 166.259 120.373 168.311 115.294 169.505L115.293 169.505C109.978 170.763 103.238 168.82 95.589 165.194C89.0533 162.096 81.9491 157.817 74.6329 153.411C73.4107 152.675 72.1825 151.935 70.9501 151.197C62.3568 146.048 53.5635 140.97 45.2043 137.692C37.8366 134.802 30.7421 133.285 24.3823 134.399C24.9636 133.962 25.6479 133.43 26.4114 132.807C28.8802 130.791 32.1812 127.814 35.5131 123.967C42.1725 116.279 48.9857 105.079 49.4712 91.111C49.7104 84.2299 50.572 79.2835 51.9449 75.8297C53.3131 72.3881 55.1737 70.4623 57.4093 69.5459C59.6644 68.6216 62.3899 68.6868 65.5569 69.42C68.7209 70.1526 72.2615 71.5362 76.1141 73.1783C83.8056 76.4565 90.1324 79.0205 95.4814 79.6979C98.168 80.0381 100.632 79.9067 102.915 79.1393C105.202 78.3708 107.275 76.975 109.193 74.8337C111.131 72.6703 112.483 69.549 113.701 66.3094C114.014 65.4758 114.319 64.6344 114.622 63.7957C115.511 61.3394 116.392 58.9072 117.459 56.7679C118.888 53.9008 120.597 51.6811 122.977 50.6916C125.34 49.7096 128.499 49.886 132.96 52.1307C142.088 56.7234 147.79 57.4395 154.003 55.6988C157.079 54.8371 160.264 53.3782 164.029 51.5368C164.864 51.1282 165.729 50.7003 166.629 50.2553C169.792 48.6901 173.387 46.9117 177.659 45.0037C183.12 42.5642 187.399 41.6623 190.568 41.9307C193.708 42.1966 195.75 43.6052 196.844 45.8375C197.957 48.1067 198.128 51.3052 197.312 55.194C196.498 59.0725 194.714 63.5807 191.995 68.4203C189.292 73.2312 187.188 76.2125 185.624 78.4288L185.588 78.4799L185.582 78.4884C184.027 80.6916 182.959 82.2059 182.42 84.0469C181.879 85.8988 181.884 88.0356 182.329 91.4862C182.698 94.3485 183.377 98.1657 184.334 103.538C184.531 104.644 184.74 105.817 184.96 107.06C185.578 110.556 185.457 113.115 184.803 114.97C184.157 116.803 182.979 117.984 181.384 118.718C179.769 119.462 177.71 119.755 175.319 119.752C172.932 119.75 170.257 119.453 167.429 119.051C166.081 118.859 164.696 118.642 163.295 118.423C158.85 117.728 154.232 117.006 150.027 116.953C144.497 116.884 139.491 117.966 136.456 121.951Z" fill="#3FA5AA" stroke="#096F74"/>
<path opacity="0.05" fill-rule="evenodd" clip-rule="evenodd" d="M193.135 42.0876C189.685 41.0005 184.589 41.6847 177.715 44.7553C174.428 46.2169 171.623 47.5798 169.041 48.8398C184.398 42.6419 196.826 55.1461 179.438 66.981C160.577 79.8202 163.281 93.5253 161.056 102.071C156.499 119.686 127.458 101.071 119.659 114.272C111.891 127.48 104.155 143.724 75.903 130.298C51.1671 118.562 28.6466 131.462 23.4059 134.872C22.6806 135.394 22.2573 135.638 22.2573 135.638C49.5229 127.491 93.66 175.363 115.669 170.2C136.362 165.334 119.208 146.065 137.114 122.462C148.636 107.266 190.726 135.461 185.713 107.181C180.548 78.0143 181.746 88.3553 192.692 68.8733C200.181 55.4922 200.694 44.471 193.135 42.0876ZM165.067 50.8006C163.761 51.4265 162.57 51.9858 161.379 52.5451C162.444 52.2124 163.627 51.6834 165.067 50.8006Z" fill="#3FA5AA"/>
<path opacity="0.5" d="M2.68409 134.415C14.8084 121.882 10.4721 139.954 26.3565 132.759C42.2631 125.602 115.505 106.741 143.277 87.9618C171.05 69.1821 187.723 48.5997 187.723 48.5997" stroke="#3FA5AA" stroke-linecap="round" stroke-linejoin="round"/>
<path opacity="0.5" d="M56.0336 122.297C56.0336 122.297 69.4052 102.261 64.4297 85.3777" stroke="#3FA5AA" stroke-linecap="round" stroke-linejoin="round"/>
<path opacity="0.5" d="M68.4258 118.656C68.4258 118.656 99.2192 132.796 110.528 144.74" stroke="#3FA5AA" stroke-linecap="round" stroke-linejoin="round"/>
<path opacity="0.5" d="M111.421 103.532C111.421 103.532 128.658 80.2382 129.353 69.7537" stroke="#3FA5AA" stroke-linecap="round" stroke-linejoin="round"/>
<path opacity="0.5" d="M92.2378 110.657C92.2378 110.657 94.9014 92.3391 93.7852 88.006" stroke="#3FA5AA" stroke-linecap="round" stroke-linejoin="round"/>
<path opacity="0.5" d="M101.416 107.358C101.416 107.358 119.3 110.914 122.518 113.11" stroke="#3FA5AA" stroke-linecap="round" stroke-linejoin="round"/>
<path opacity="0.5" d="M127.582 96.6391C127.582 96.6391 160.471 94.9438 171.302 102.726" stroke="#3FA5AA" stroke-linecap="round" stroke-linejoin="round"/>
<path opacity="0.5" d="M148.954 84.0174C148.954 84.0174 152.763 75.9939 152.953 69.7009" stroke="#3FA5AA" stroke-linecap="round" stroke-linejoin="round"/>
<path opacity="0.5" d="M160.818 74.8338C160.818 74.8338 173.406 70.1061 180.65 70.3881" stroke="#3FA5AA" stroke-linecap="round" stroke-linejoin="round"/>
</svg>
