<svg width="25" height="25" viewBox="0 0 25 25" fill="none" xmlns="http://www.w3.org/2000/svg">
<g clip-path="url(#clip0)">
<path d="M20.4946 9.59314H4.5062C3.70474 9.59314 3.05273 10.2452 3.05273 11.0466V23.5466C3.05273 24.3481 3.70479 25.0001 4.5062 25.0001H20.4946C21.296 25.0001 21.948 24.348 21.948 23.5466V11.0466C21.948 10.2452 21.296 9.59314 20.4946 9.59314ZM20.2039 23.2559H4.79692V11.3373H20.2039V23.2559H20.2039Z" fill="#3FA5AA"/>
<path d="M12.501 0C8.57393 0 5.37891 3.22124 5.37891 7.18022V10.1744H7.1231V7.18022C7.1231 4.18286 9.5356 1.74419 12.501 1.74419C15.4665 1.74419 17.879 4.18286 17.879 7.18022V10.1744H19.6231V7.18022C19.6231 3.22124 16.4283 0 12.501 0Z" fill="#3FA5AA"/>
<path d="M12.3545 16.2791C11.8728 16.2791 11.4824 16.6695 11.4824 17.1511V19.186C11.4824 19.6677 11.8729 20.0581 12.3545 20.0581C12.8361 20.0581 13.2266 19.6676 13.2266 19.186V17.1511C13.2266 16.6695 12.8362 16.2791 12.3545 16.2791Z" fill="#3FA5AA"/>
</g>
<defs>
<clipPath id="clip0">
<rect width="25" height="25" fill="white"/>
</clipPath>
</defs>
</svg>
