<svg width="187" height="63" viewBox="0 0 187 63" fill="none" xmlns="http://www.w3.org/2000/svg">
<path d="M64.7253 45.9441C63.9751 47.2889 62.8232 48.3751 61.2698 49.1996C59.7153 50.0251 57.7873 50.4379 55.4836 50.4379H51.2239V60.5055H44.3525V32.4606H55.4836C57.7342 32.4606 59.6362 32.8475 61.1897 33.6193C62.7431 34.392 63.9085 35.4575 64.6857 36.8158C65.4619 38.1741 65.8511 39.732 65.8511 41.4896C65.85 43.1148 65.4744 44.5993 64.7253 45.9441ZM57.8934 44.0861C58.5364 43.4737 58.8579 42.6079 58.8579 41.4896C58.8579 40.3713 58.5364 39.5055 57.8934 38.893C57.2504 38.2806 56.2723 37.9744 54.9603 37.9744H51.2228V45.0058H54.9603C56.2723 45.0048 57.2514 44.6996 57.8934 44.0861Z" fill="#202424"/>
<path d="M76.2976 30.942V60.5055H69.4262V30.942H76.2976Z" fill="#202424"/>
<path d="M81.2202 43.2875C82.09 41.5568 83.2762 40.2255 84.7766 39.2924C86.277 38.3603 87.9511 37.8937 89.799 37.8937C91.3795 37.8937 92.7654 38.2134 93.9578 38.8527C95.1492 39.492 96.0679 40.331 96.711 41.3696V38.2134H103.582V60.5065H96.711V57.3503C96.0409 58.3889 95.1097 59.2279 93.9183 59.8672C92.7259 60.5065 91.34 60.8262 89.7595 60.8262C87.9376 60.8262 86.277 60.3534 84.7766 59.4079C83.2762 58.4624 82.0911 57.1175 81.2202 55.3724C80.3493 53.6282 79.9144 51.611 79.9144 49.3196C79.9144 47.0293 80.3493 45.0193 81.2202 43.2875ZM95.2845 45.3244C94.3335 44.3396 93.1744 43.8462 91.8082 43.8462C90.442 43.8462 89.2829 44.3324 88.3319 45.3048C87.3809 46.2772 86.9054 47.6158 86.9054 49.3196C86.9054 51.0244 87.3809 52.3755 88.3319 53.3748C89.2829 54.373 90.441 54.8727 91.8082 54.8727C93.1754 54.8727 94.3324 54.3803 95.2845 53.3944C96.2355 52.4096 96.711 51.0637 96.711 49.3589C96.711 47.6562 96.2344 46.3103 95.2845 45.3244Z" fill="#202424"/>
<path d="M128.515 40.511C130.082 42.2024 130.865 44.5259 130.865 47.4824V60.5065H124.034V48.401C124.034 46.9093 123.645 45.7507 122.869 44.9252C122.092 44.0996 121.047 43.6869 119.735 43.6869C118.422 43.6869 117.377 44.1007 116.601 44.9252C115.824 45.7507 115.436 46.9093 115.436 48.401V60.5065H108.564V38.2134H115.436V41.17C116.132 40.1852 117.069 39.4062 118.248 38.8331C119.427 38.261 120.752 37.9745 122.226 37.9745C124.851 37.9734 126.948 38.8196 128.515 40.511Z" fill="#202424"/>
<path d="M154.011 34.2182C156.234 35.3903 157.955 37.0351 159.175 39.1527C160.393 41.2703 161.003 43.7137 161.003 46.4841C161.003 49.2275 160.393 51.6648 159.175 53.7948C157.955 55.9258 156.228 57.5769 153.991 58.7489C151.754 59.921 149.162 60.5065 146.215 60.5065H135.647V32.4606H146.215C149.189 32.4606 151.787 33.0472 154.011 34.2182ZM151.841 52.4758C153.288 51.0648 154.011 49.0672 154.011 46.4831C154.011 43.9 153.288 41.8889 151.841 40.4499C150.395 39.012 148.372 38.293 145.773 38.293H142.519V54.5934H145.773C148.371 54.5934 150.394 53.8879 151.841 52.4758Z" fill="#202424"/>
<path d="M169.139 59.4275C167.384 58.4955 166.005 57.1641 165 55.4324C163.995 53.7017 163.494 51.6772 163.494 49.3599C163.494 47.0696 164.003 45.0524 165.021 43.3072C166.039 41.5631 167.432 40.2244 169.2 39.2924C170.968 38.3603 172.95 37.8937 175.147 37.8937C177.344 37.8937 179.327 38.3603 181.095 39.2924C182.862 40.2255 184.256 41.5631 185.273 43.3072C186.291 45.0524 186.801 47.0696 186.801 49.3599C186.801 51.6513 186.285 53.6686 185.253 55.4127C184.222 57.1579 182.816 58.4955 181.034 59.4275C179.252 60.3606 177.264 60.8262 175.067 60.8262C172.87 60.8262 170.894 60.3606 169.139 59.4275ZM178.422 53.4751C179.346 52.5162 179.808 51.1444 179.808 49.3599C179.808 47.5755 179.359 46.2037 178.461 45.2448C177.563 44.2858 176.458 43.8068 175.146 43.8068C173.806 43.8068 172.695 44.2796 171.811 45.2251C170.927 46.1706 170.486 47.5496 170.486 49.3599C170.486 51.1444 170.921 52.5162 171.792 53.4751C172.661 54.4341 173.754 54.913 175.066 54.913C176.379 54.913 177.498 54.4341 178.422 53.4751Z" fill="#202424"/>
<path d="M24.6715 27.8448C24.3074 27.7931 24.3074 27.5862 24.0993 26.862C23.8912 26.1379 24.7756 25.5689 24.7756 25.5689C24.7756 25.5689 25.2958 25.2586 25.0877 25.0517C24.8921 24.8572 23.5041 25.5751 23.3356 25.6631C23.3241 25.6693 23.3116 25.6765 23.2991 25.6786C23.2211 25.6931 23.1743 25.72 23.1451 25.7479C23.1004 25.7934 23.1014 25.8669 23.1431 25.9165C24.5082 27.5376 23.9952 31 23.8912 31.4138C23.8111 31.7314 22.5906 34.0517 22.4865 34.5689C22.3825 35.0862 22.6977 35.5434 23.0068 35.5C23.3709 35.4483 23.2419 34.5307 23.6311 33.8448C23.7039 33.7176 24.4114 32.6552 24.4634 31.8793C24.4895 31.4903 24.7069 31.2845 24.8796 31.1996C24.94 31.1696 25.0087 31.1634 25.0742 31.1769C26.2541 31.4324 28.6119 30.7962 28.1052 28.9827C27.5943 27.1527 25.0836 27.9038 24.6715 27.8448ZM26.4414 29.92C25.9108 29.6334 26.353 29.0593 26.353 29.0593C26.8836 28.6765 27.3248 29.2507 27.3248 29.442C27.3248 29.6334 26.971 30.2076 26.4414 29.92Z" fill="#1E2626"/>
<path d="M12.914 25.9827C13.8505 24.7414 15.0252 23.7131 15.4112 23.5C15.8794 23.2414 15.8274 23.0862 17.2841 23.0862C18.1342 23.0862 18.3818 22.8751 18.4411 22.6993C18.4838 22.572 18.386 22.4386 18.2518 22.4272C18.0967 22.4138 17.8106 22.4138 17.2841 22.4655C16.4559 22.5483 16.6598 22.0517 16.0355 21.1207C15.4112 20.1896 14.5788 19.8793 13.6424 19.9827C12.7059 20.0862 12.1857 20.8103 12.2898 21.8448C12.3938 22.8793 13.5383 23.6034 13.5383 23.6034C13.5383 23.6034 13.7464 23.7069 13.7464 24.0172C13.7464 24.3276 13.3823 24.6896 13.1742 24.8965C12.9661 25.1034 12.4979 25.2586 11.9776 25.1551C11.4574 25.0517 11.4574 24.431 11.2493 24.2241C11.0412 24.0172 10.9891 24.6896 11.0412 25.0517C11.1005 25.4614 11.9776 27.2241 12.914 25.9827ZM14.0586 21.2241C14.6829 21.0172 14.7869 21.431 14.891 21.6379C14.995 21.8448 14.6829 22.362 14.3707 22.362C14.0586 22.362 13.8505 22.2586 13.7464 21.8448C13.6424 21.431 14.0586 21.2241 14.0586 21.2241Z" fill="#1E2626"/>
<path d="M16.3477 17.7069C16.3477 17.7069 17.6098 18.0059 18.4443 18.5583C18.8116 18.8014 19.0748 19.1707 19.1861 19.5948C19.2975 20.021 19.4296 20.6934 19.3651 21.3276C19.3058 21.9131 20.2006 21.2024 20.2932 20.3345C20.3047 20.231 20.2963 20.1276 20.2745 20.0252C20.1569 19.4552 19.5378 17.6034 16.4507 17.6034C16.4517 17.6034 16.2436 17.6034 16.3477 17.7069Z" fill="#1E2626"/>
<path d="M30.0467 26.0448C29.0801 24.5065 27.5329 25.3103 27.5329 25.3103C27.3248 25.5172 27.793 25.6724 27.793 25.6724C29.8105 26.5082 29.4505 28.4241 29.2383 29.1296C29.2175 29.2 29.308 29.2517 29.3569 29.1958C29.9593 28.5162 30.2309 27.2065 30.1674 26.5382C30.1518 26.3655 30.1393 26.1927 30.0467 26.0448Z" fill="#1E2626"/>
<path d="M26.9607 33.5345C25.608 33.6379 25.504 35.6024 25.504 35.6034C24.7278 37.4034 23.2544 37.8431 22.651 37.9496C22.4449 37.9858 22.2368 38.02 22.0423 38.0965C20.7271 38.6148 19.8396 38.5589 19.2735 38.3624C18.7772 38.1896 18.4526 37.7107 18.4703 37.1883C18.5057 36.1124 18.2705 35.6262 18.0884 35.2227C18.0052 35.0386 17.8949 34.8689 17.7596 34.7189C16.5464 33.3793 16.6952 32.8424 16.7503 32.7307C16.7566 32.7183 16.7649 32.7069 16.7732 32.6955C17.5016 31.7779 18.7366 31.7769 18.7408 31.7769C18.7408 31.7769 20.8218 31.9838 21.342 30.7424C21.8623 29.501 20.6137 27.6389 19.4691 26.9148C18.3246 26.1907 15.8274 26.2941 15.3072 27.6389C14.7869 28.9838 15.5673 28.8276 15.9835 30.6896C16.3997 32.5517 14.943 32.2414 14.943 32.2414C14.1627 31.9827 13.2262 32.2931 13.0181 32.2931C12.81 32.2931 10.625 33.2241 9.5845 32.5C8.54401 31.7758 8.28389 30.4827 8.28389 30.1724C8.28389 30.0141 8.17984 29.7586 8.07163 29.7462C7.97174 29.7586 7.86769 29.9655 7.86769 30.1724C7.86249 30.6565 7.99984 32.3282 8.80413 32.862C9.74057 33.4827 10.702 33.5748 11.0412 34.362C11.1973 34.7241 10.8331 36.0172 12.9141 37.1551C14.994 38.292 15.8264 37.6734 15.8274 37.6724C15.8285 37.6714 16.2426 36.8448 15.0991 36.6379C13.9546 36.431 13.1222 35.6034 13.1222 35.6034C11.6665 34.1562 13.0171 33.432 13.0181 33.431C15.791 32.9955 16.8752 34.4427 17.2748 35.3458C17.4225 35.6779 17.4641 36.0451 17.4215 36.4062C17.2696 37.72 17.8533 38.6541 18.1675 38.862C18.1914 38.8786 18.4422 39.0151 18.4692 39.0255C19.7282 39.4827 20.6272 39.3234 23.3179 38.6034C26.0232 37.8793 26.0825 36.4124 26.2313 36.1207C26.4092 35.772 27.0356 35.2362 27.3696 34.9579C27.559 34.8007 27.689 34.5845 27.7462 34.3455C27.8378 33.9617 27.7983 33.4703 26.9607 33.5345ZM16.8929 28.0558C17.1842 27.8489 17.9313 27.4196 18.7408 27.7413C19.7813 28.1551 19.8853 29.0862 19.8853 29.0862C19.8853 29.0862 19.9894 29.3965 19.5732 29.2931C19.157 29.1896 18.4287 28.8793 18.2206 28.7758C18.0281 28.6796 17.3902 28.6734 16.8835 28.2627C16.8169 28.2089 16.8232 28.1055 16.8929 28.0558Z" fill="#1E2626"/>
<path d="M8.43996 35.9138C7.65959 35.4483 7.24339 34.1034 6.8272 33.6897C6.59205 33.4559 6.45678 33.4528 6.38291 33.4952C6.33192 33.5241 6.32152 33.5852 6.31319 33.6431C5.99481 35.9655 8.54713 36.9514 8.85615 37.2586C9.22032 37.6207 9.82277 37.6424 9.89664 37.5689C10.0527 37.4138 9.45755 36.521 8.43996 35.9138Z" fill="#1E2626"/>
<path d="M14.7349 14.2414C14.9108 14.2993 15.2812 14.2745 15.4633 14.2414C15.945 14.1534 16.6588 13.9155 17.3362 12.7931C17.3362 12.7931 17.6213 11.8941 18.2726 11.6551C18.3881 11.6127 18.6888 11.4679 18.6888 11.3448C18.6888 11.2414 18.6888 11.1379 18.4807 11.0345C18.0947 10.842 17.4402 11.2414 17.3362 11.3448C17.0719 11.6076 16.7119 11.7586 16.3477 12.5345C16.3477 12.5345 15.9076 13.3538 15.3072 13.1551C15.3041 13.1541 15.301 13.1531 15.2978 13.152C15.0294 13.0631 14.7339 13.1076 14.5008 13.2689C14.094 13.5514 13.7985 13.931 14.7349 14.2414Z" fill="#1E2626"/>
<path d="M22.9121 57.6348C21.3524 61.7479 24.6185 61.7272 25.2844 61.6827C25.3645 61.6776 25.4457 61.691 25.5217 61.7189C28.1354 62.7058 29.5754 62.0593 30.0811 61.7293C30.2132 61.6434 30.3724 61.6165 30.5275 61.6476C30.901 61.722 31.6397 61.6662 32.1631 60.3276C32.8914 58.4655 31.0186 56.6034 30.4983 55.362C29.9781 54.1207 30.9145 50.1896 31.7469 48.1207C32.5283 46.1779 32.3015 43.0507 32.2703 42.6752C32.2682 42.6493 32.2682 42.6234 32.2703 42.5976C32.4336 40.2214 31.8978 38.6179 31.7074 38.1358C31.6678 38.0345 31.6574 37.9248 31.6793 37.8183C31.801 37.2255 32.1579 35.1617 31.5399 33.8448C30.8115 32.2931 30.9156 31.4655 31.0196 30.7414C31.1237 30.0172 31.852 30.1207 31.852 30.1207C33.4242 30.2034 33.9434 29.5662 34.0901 29.3014C34.1213 29.2455 34.14 29.1834 34.1515 29.1203C34.2691 28.4593 34.8434 28.0083 35.0234 27.881C35.0557 27.8583 35.089 27.8396 35.1243 27.8241C35.8048 27.5334 37.3177 26.8652 37.6236 26.7307C37.66 26.7141 37.6985 26.7027 37.737 26.6955C40.7825 26.0862 42.6825 22.4562 42.9519 21.9131C42.9738 21.8686 42.9904 21.822 42.9998 21.7734C43.441 19.51 42.0561 18.4745 41.8625 18.342C41.849 18.3327 41.8365 18.3255 41.822 18.3172C38.5944 16.4676 33.0975 17.0872 31.6429 17.8103C30.1862 18.5345 29.5619 17.8103 29.5619 17.8103C27.8971 15.8448 24.6716 14.3965 23.6311 13.7758C22.6561 13.1945 23.1431 12.34 23.2076 12.2345C23.2139 12.2241 23.2191 12.2148 23.2253 12.2045C24.478 9.88205 23.8319 6.75791 23.7445 6.36791C23.7383 6.34101 23.731 6.31619 23.7216 6.29032C22.5864 3.31722 20.4472 1.94136 20.0528 1.7086C20.0091 1.68274 19.9696 1.64963 19.9342 1.61343C19.1351 0.788944 18.1363 0.966875 17.872 1.03308C17.8324 1.04343 17.7939 1.05687 17.7575 1.0755C13.7787 3.03584 12.2159 6.44963 11.6904 8.00239C11.5468 8.4255 11.4917 8.87343 11.5385 9.31722C11.6759 10.6155 11.2368 11.5269 11.0339 11.8693C10.9819 11.9572 10.9069 12.0307 10.8164 12.0783C9.31707 12.8593 9.81026 14.1917 9.88726 14.3769C9.89454 14.3934 9.90078 14.41 9.90598 14.4276C10.6229 16.6993 9.74679 19.2803 9.52829 19.8638C9.49915 19.9424 9.45129 20.0127 9.3899 20.0707C6.26323 23.0479 6.67006 26.3024 6.46404 27.0193C6.25595 27.7434 2.92638 31.1572 2.82233 33.2262C2.71828 35.2952 1.67779 37.571 1.67779 37.571C1.67779 37.571 0.584237 40.3103 1.00043 44.4483C1.41663 48.5862 1.4031 49.0486 2.14497 52C2.45712 53.2414 2.24902 53.9655 2.24902 54.5862C2.24902 55.3558 1.6986 55.6279 1.41663 56.3448C0.804821 57.8996 1.15755 59.1007 1.24287 59.3489C1.25535 59.3841 1.26264 59.4193 1.2668 59.4555C1.48322 61.1076 3.2739 61.3279 3.74629 61.3569C3.8264 61.3621 3.9034 61.3848 3.97415 61.4221C6.46821 62.7379 7.94154 61.7789 8.33276 61.4562C8.40768 61.3951 8.4982 61.3548 8.59289 61.3393C9.92575 61.1252 10.1578 60.2914 10.1984 60.0079C10.2088 59.9365 10.2337 59.8703 10.2691 59.8072C11.2128 58.1376 10.4085 55.3455 10.1026 54.6369C9.88101 54.1217 10.1318 53.921 10.2962 53.8476C10.3513 53.8227 10.4106 53.8093 10.471 53.8041C11.8194 53.6893 12.0296 54.0689 12.6539 54.1724C13.4998 54.3131 14.327 54.4465 15.2489 54.5386C15.5891 54.5727 15.9315 54.5727 16.2717 54.5376C16.9522 54.4672 17.9958 54.2262 18.5847 53.9655C19.5212 53.5517 21.7759 54.0265 23.0588 53.0345C23.7653 52.4883 23.4407 55.0983 23.2388 56.411C23.1743 56.83 23.0619 57.2386 22.9121 57.6348ZM40.0708 24.0172C39.8627 24.2241 38.9263 25.0517 38.1979 25.1552C37.4696 25.2586 34.7643 26.2931 34.3481 27.3276C33.9319 28.362 32.6833 28.9827 31.955 28.7758C31.2267 28.5689 30.2902 29.9138 30.2902 29.9138C30.2902 29.9138 29.5619 30.7414 29.6659 31.7758C29.77 32.8103 30.8105 35.0862 30.7064 36.1207C30.6024 37.1552 29.9781 38.8103 29.4578 39.0172C28.9854 39.2055 28.9417 39.9058 30.4224 39.7217C30.7106 39.6855 30.9801 39.8738 31.0446 40.1562C31.3578 41.5352 32.0268 45.4331 30.6097 48.9327C30.6055 48.9431 30.6013 48.9534 30.5961 48.9638C30.4848 49.2027 29.0385 52.3434 28.9386 54.4321C28.8346 56.6045 30.6034 57.8458 30.8115 58.57C31.0175 59.2879 31.3265 60.31 30.3183 60.4289C30.2736 60.4341 30.2299 60.4445 30.1883 60.461C30.0707 60.5076 29.8439 60.6296 29.4589 60.9493C28.8346 61.4665 28.5224 60.2252 28.1062 59.9148C27.7337 59.6376 27.4206 60.4931 27.2738 60.6389C27.1698 60.7424 26.3374 60.9493 26.1293 60.1217C25.9212 59.2941 25.7131 59.0872 25.401 59.1907C25.0888 59.2941 24.8807 60.0183 24.5686 60.1217C24.2564 60.2252 23.32 59.7079 23.5281 58.3631C23.7362 57.0183 24.7767 55.6734 24.7767 54.8458C24.7767 54.5355 24.5686 50.8114 24.5686 49.57C24.5686 48.3286 25.401 45.8458 25.7131 45.7424C26.0211 45.64 25.2137 45.0338 24.3927 46.4117C24.3709 46.4479 24.3542 46.4862 24.3407 46.5265C24.2866 46.6952 24.1326 47.1834 24.0483 47.6045C23.9443 48.1217 23.9443 50.1907 22.2795 51.4321C20.6147 52.6734 18.5337 52.57 18.2216 52.3631C17.9094 52.1562 17.077 52.9838 16.1406 52.8803C15.2042 52.7769 12.707 52.9838 11.3543 50.501C10.0017 48.0183 9.37742 48.6389 9.27337 46.9838C9.16932 45.3286 7.08834 45.7424 7.19239 46.0527C7.29644 46.3631 8.12883 47.2941 8.44098 48.0183C8.75312 48.7424 9.06527 49.4665 9.06527 50.501C9.06527 51.5355 8.33693 53.8114 8.75312 55.1562C9.16932 56.501 9.68956 57.9493 9.68956 58.2596C9.68956 58.5421 10.035 60.1124 8.68133 59.921C8.45034 59.8879 8.23912 59.7803 8.05599 59.6365C7.92905 59.5372 7.7709 59.4741 7.71263 59.7079C7.60962 60.1176 6.99574 61.2379 5.87201 60.6565C5.84704 60.6441 5.8231 60.6286 5.80021 60.6131C5.64414 60.5003 5.07187 60.0286 5.10308 59.1989C5.10725 59.1027 5.03753 59.0107 4.94181 58.9972C4.85025 58.9827 4.7462 59.0345 4.69417 59.2931C4.69417 59.2931 4.69417 60.1714 3.79831 60.4714C3.6027 60.5365 3.38107 60.4952 3.23436 60.3514C3.05228 60.1734 2.8858 59.8321 3.02939 59.1896C3.23749 58.2586 2.71724 58.4655 2.40509 58.1552C2.197 57.9483 2.197 56.9138 3.02939 56.3965C3.86178 55.8793 3.96583 52.0517 3.34154 51.0172C2.74117 50.022 2.23654 45.0979 2.19908 44.7286C2.19804 44.7141 2.19596 44.7007 2.19284 44.6862C2.13769 44.3872 1.53108 40.9217 2.35827 39.0162C2.38637 38.951 2.42903 38.8931 2.48105 38.8434C2.70788 38.6241 3.37795 37.9248 3.54963 37.1562C3.75773 36.2252 3.34154 34.3631 4.90227 31.6734C6.46301 28.9838 8.54398 26.8114 8.54398 26.3976C8.54398 25.9838 7.81564 24.2252 9.16828 22.7769C10.5209 21.3286 11.0412 19.6734 11.1452 17.6045C11.2493 15.5355 11.9776 15.5355 12.0816 15.2252C12.1212 15.1083 12.116 15.0069 12.0941 14.9252C12.0671 14.8227 12.0047 14.7338 11.9245 14.6645C11.7341 14.4989 11.1171 13.8938 11.5614 13.3631C12.0816 12.7424 12.81 12.5355 12.6019 11.1907C12.3959 9.85722 13.0077 6.1817 17.2831 2.79067C17.3611 2.7286 17.4558 2.68825 17.5546 2.67377C18.1248 2.58791 20.0445 2.55377 21.4461 5.60446C23.1108 9.22515 21.4461 13.2596 21.1339 13.57C20.8218 13.8803 21.5501 14.3976 21.8623 14.3976C22.1713 14.3976 25.8525 15.7186 29.463 19.5679C29.5379 19.6476 29.6337 19.7045 29.7398 19.7303C30.0291 19.8027 30.6128 19.8596 31.0633 19.3331C31.108 19.2803 31.159 19.2348 31.2204 19.2027C31.4275 19.0931 31.9425 18.8696 32.5793 18.9483C33.4096 19.0517 34.8601 17.0976 40.9542 19.1376C40.9937 19.151 41.0333 19.1686 41.0687 19.1903C41.2924 19.3269 42.0478 19.872 42.0478 21.0172C42.0478 22.362 40.2789 23.8103 40.0708 24.0172Z" fill="#1E2626"/>
<path d="M31.4826 21.792C31.3276 21.8252 31.2235 21.97 31.2194 22.1283C31.211 22.541 31.2339 23.5745 31.6428 24.2252C32.1631 25.0527 32.059 26.1907 31.955 26.3976C31.8509 26.6045 32.47 26.6034 32.6833 25.7769C32.8946 24.9576 32.4617 24.5438 32.2671 24.0183C32.1537 23.711 32.007 23.6562 31.8509 23.1907C31.7198 22.7986 32.1111 22.2079 31.955 21.9493C31.8707 21.8096 31.6637 21.7527 31.4826 21.792Z" fill="#1E2626"/>
</svg>
