<svg width="86" height="77" viewBox="0 0 86 77" fill="none" xmlns="http://www.w3.org/2000/svg">
<path d="M43.7721 34.0559C36.0377 32.1129 18.8366 40.4611 14.6734 55.0283C10.5048 69.614 23.2373 61.2371 35.1486 64.2294C47.0599 67.2217 53.6218 80.4357 57.7877 65.8593C61.951 51.2921 51.495 36.0059 43.7721 34.0559ZM53.1289 31.5833C56.8319 33.7268 62.3907 31.0361 65.5568 25.5663C68.7203 20.1059 68.2848 13.9303 64.5792 11.7961C60.8763 9.6526 55.3174 12.3434 52.1513 17.8131C48.9966 23.2757 49.4259 29.4398 53.1289 31.5833ZM36.9761 27.5354C41.3261 27.415 44.994 22.2802 45.1664 16.0683C45.3415 9.84719 41.9624 4.91108 37.6151 5.02226C33.2651 5.14271 29.5971 10.2775 29.4247 16.4894C29.247 22.7198 32.6349 27.6581 36.9761 27.5354ZM25.0008 26.6254C23.778 21.3459 19.7402 17.9846 15.994 19.112C12.2478 20.2393 10.2036 25.434 11.4263 30.7135C12.6579 35.9952 16.6869 39.3542 20.4331 38.2269C24.1882 37.1017 26.2324 31.9071 25.0008 26.6254ZM75.8098 34.1287C73.1668 31.3962 67.8862 32.4166 64.0055 36.4041C60.131 40.403 59.1221 45.8578 61.7625 48.5995C64.4056 51.332 69.6951 50.3139 73.5784 46.3171C77.4441 42.3159 78.4529 36.8612 75.8098 34.1287Z" fill="white" fill-opacity="0.2"/>
</svg>
