<svg width="19" height="17" viewBox="0 0 19 17" fill="none" xmlns="http://www.w3.org/2000/svg">
<path d="M9.30804 6.98734C7.25744 6.96809 3.46104 10.0924 3.29886 13.9849C3.13648 17.8824 5.8141 15.0205 8.97212 15.0501C12.1301 15.0797 14.5674 17.9872 14.7297 14.0922C14.8918 10.1996 11.3562 7.00904 9.30804 6.98734ZM11.4979 5.80495C12.5528 6.11745 13.7801 5.10957 14.2417 3.55132C14.7032 1.99555 14.2219 0.478053 13.1668 0.168035C12.1119 -0.144462 10.8846 0.863418 10.423 2.42167C9.96389 3.97746 10.443 5.49246 11.4979 5.80495ZM7.21593 5.76724C8.29606 5.47479 8.9033 3.96999 8.57176 2.40677C8.24032 0.841079 7.09793 -0.189043 6.0179 0.100935C4.93777 0.393393 4.33054 1.89819 4.66208 3.46141C4.99341 5.02958 6.13814 6.05972 7.21593 5.76724ZM4.16751 6.26197C3.54344 5.01597 2.33136 4.41924 1.46289 4.92699C0.594414 5.43474 0.396695 6.85657 1.02076 8.10258C1.64717 9.3486 2.85691 9.9453 3.72538 9.43756C4.5962 8.92983 4.79392 7.508 4.16751 6.26197ZM17.3211 5.07336C16.4956 4.54971 15.2371 5.12325 14.5075 6.35406C13.7802 7.58738 13.8569 9.01179 14.6823 9.53792C15.5078 10.0616 16.7687 9.48805 17.4984 8.25476C18.2234 7.02141 18.1466 5.59701 17.3211 5.07336Z" fill="#3FA5AA"/>
</svg>
