<svg width="80" height="51" viewBox="0 0 80 51" fill="none" xmlns="http://www.w3.org/2000/svg">
<g clip-path="url(#clip0)">
<rect width="80" height="51" rx="3" fill="#0B151F"/>
<path d="M46.9812 37.865H32.9824V12.9165H46.9812V37.865Z" fill="#FF5F00"/>
<path d="M33.8785 25.3887C33.8785 20.3278 36.2679 15.8197 39.989 12.9145C37.2679 10.79 33.8337 9.52204 30.1015 9.52204C21.2658 9.52204 14.1035 16.6257 14.1035 25.3887C14.1035 34.1517 21.2658 41.2554 30.1015 41.2554C33.8337 41.2554 37.2679 39.9874 39.989 37.8629C36.2679 34.9577 33.8785 30.4496 33.8785 25.3887Z" fill="#EB001B"/>
<path d="M65.8611 25.3887C65.8611 34.1517 58.6988 41.2554 49.8631 41.2554C46.1309 41.2554 42.6967 39.9874 39.9746 37.8629C43.6967 34.9577 46.0861 30.4496 46.0861 25.3887C46.0861 20.3278 43.6967 15.8197 39.9746 12.9145C42.6967 10.79 46.1309 9.52204 49.8631 9.52204C58.6988 9.52204 65.8611 16.6257 65.8611 25.3887Z" fill="#F79E1B"/>
<path d="M26.1425 25.4892C26.1425 24.7961 26.6005 24.2267 27.3489 24.2267C28.064 24.2267 28.5467 24.7716 28.5467 25.4892C28.5467 26.2068 28.064 26.7516 27.3489 26.7516C26.6005 26.7516 26.1425 26.1822 26.1425 25.4892ZM29.3617 25.4892V23.5176H28.4972V23.9964C28.223 23.6413 27.8069 23.4185 27.2413 23.4185C26.1264 23.4185 25.2523 24.2853 25.2523 25.4892C25.2523 26.694 26.1264 27.5598 27.2413 27.5598C27.8069 27.5598 28.223 27.337 28.4972 26.982V27.4607H29.3617V25.4892ZM58.5774 25.4892C58.5774 24.7961 59.0354 24.2267 59.7838 24.2267C60.4998 24.2267 60.9816 24.7716 60.9816 25.4892C60.9816 26.2068 60.4998 26.7516 59.7838 26.7516C59.0354 26.7516 58.5774 26.1822 58.5774 25.4892ZM61.7976 25.4892V21.9342H60.9321V23.9964C60.6579 23.6413 60.2418 23.4185 59.6762 23.4185C58.5612 23.4185 57.6872 24.2853 57.6872 25.4892C57.6872 26.694 58.5612 27.5598 59.6762 27.5598C60.2418 27.5598 60.6579 27.337 60.9321 26.982V27.4607H61.7976V25.4892ZM40.0934 24.1861C40.6504 24.1861 41.0084 24.5327 41.0998 25.1426H39.0365C39.1289 24.5733 39.4773 24.1861 40.0934 24.1861ZM40.1105 23.4185C38.9451 23.4185 38.1301 24.2598 38.1301 25.4892C38.1301 26.7431 38.9784 27.5598 40.1686 27.5598C40.7675 27.5598 41.3159 27.4116 41.7987 27.0075L41.375 26.372C41.0417 26.6354 40.6171 26.7846 40.2181 26.7846C39.6611 26.7846 39.1536 26.5287 39.0289 25.8187H41.9815C41.9901 25.712 41.9986 25.6044 41.9986 25.4892C41.9901 24.2598 41.2245 23.4185 40.1105 23.4185ZM50.5499 25.4892C50.5499 24.7961 51.0078 24.2267 51.7562 24.2267C52.4713 24.2267 52.954 24.7716 52.954 25.4892C52.954 26.2068 52.4713 26.7516 51.7562 26.7516C51.0078 26.7516 50.5499 26.1822 50.5499 25.4892ZM53.7691 25.4892V23.5176H52.9045V23.9964C52.6293 23.6413 52.2142 23.4185 51.6486 23.4185C50.5337 23.4185 49.6596 24.2853 49.6596 25.4892C49.6596 26.694 50.5337 27.5598 51.6486 27.5598C52.2142 27.5598 52.6293 27.337 52.9045 26.982V27.4607H53.7691V25.4892ZM45.6673 25.4892C45.6673 26.6855 46.507 27.5598 47.7886 27.5598C48.3875 27.5598 48.7865 27.4276 49.2188 27.0896L48.8036 26.3965C48.4789 26.6279 48.1381 26.7516 47.7629 26.7516C47.0726 26.7431 46.5651 26.2483 46.5651 25.4892C46.5651 24.73 47.0726 24.2352 47.7629 24.2267C48.1381 24.2267 48.4789 24.3504 48.8036 24.5818L49.2188 23.8887C48.7865 23.5507 48.3875 23.4185 47.7886 23.4185C46.507 23.4185 45.6673 24.2928 45.6673 25.4892ZM56.814 23.4185C56.3151 23.4185 55.9904 23.6498 55.7657 23.9964V23.5176H54.9088V27.4607H55.7743V25.2503C55.7743 24.5978 56.0571 24.2352 56.6227 24.2352C56.7979 24.2352 56.9807 24.2598 57.1635 24.3344L57.4301 23.5261C57.2387 23.4515 56.9892 23.4185 56.814 23.4185ZM33.6378 23.8311C33.2217 23.5592 32.6486 23.4185 32.0163 23.4185C31.009 23.4185 30.3605 23.8972 30.3605 24.6809C30.3605 25.3239 30.8433 25.7205 31.7326 25.8442L32.1411 25.9018C32.6152 25.9679 32.839 26.0916 32.839 26.3144C32.839 26.6194 32.5229 26.7931 31.9325 26.7931C31.3336 26.7931 30.9014 26.6033 30.61 26.3805L30.2025 27.0481C30.6767 27.3946 31.2756 27.5598 31.924 27.5598C33.0723 27.5598 33.7378 27.0235 33.7378 26.2729C33.7378 25.5798 33.2141 25.2172 32.3486 25.0935L31.9411 25.035C31.5669 24.9859 31.267 24.9122 31.267 24.6479C31.267 24.3589 31.5498 24.1861 32.0239 24.1861C32.5314 24.1861 33.0227 24.3759 33.2636 24.5242L33.6378 23.8311ZM44.7932 23.4185C44.2943 23.4185 43.9696 23.6498 43.7458 23.9964V23.5176H42.8889V27.4607H43.7534V25.2503C43.7534 24.5978 44.0362 24.2352 44.6018 24.2352C44.777 24.2352 44.9598 24.2598 45.1426 24.3344L45.4092 23.5261C45.2178 23.4515 44.9684 23.4185 44.7932 23.4185ZM37.415 23.5176H36.0011V22.3213H35.127V23.5176H34.3205V24.3013H35.127V26.1001C35.127 27.015 35.485 27.5598 36.5076 27.5598C36.8828 27.5598 37.315 27.4446 37.5892 27.2548L37.3398 26.5202C37.0818 26.6685 36.799 26.7431 36.5743 26.7431C36.142 26.7431 36.0011 26.4787 36.0011 26.0831V24.3013H37.415V23.5176ZM24.4877 27.4607V24.9859C24.4877 24.054 23.8888 23.427 22.9233 23.4185C22.4158 23.41 21.8922 23.5667 21.5256 24.1201C21.2514 23.6829 20.8191 23.4185 20.2116 23.4185C19.787 23.4185 19.3718 23.5422 19.0471 24.0039V23.5176H18.1816V27.4607H19.0548V25.2748C19.0548 24.5903 19.4375 24.2267 20.0288 24.2267C20.6029 24.2267 20.8934 24.5978 20.8934 25.2663V27.4607H21.7674V25.2748C21.7674 24.5903 22.1664 24.2267 22.7405 24.2267C23.3308 24.2267 23.6136 24.5978 23.6136 25.2663V27.4607H24.4877Z" fill="white"/>
</g>
<defs>
<clipPath id="clip0">
<rect width="80" height="51" fill="white"/>
</clipPath>
</defs>
</svg>
