<svg width="80" height="51" viewBox="0 0 80 51" fill="none" xmlns="http://www.w3.org/2000/svg">
<g clip-path="url(#clip0)">
<rect width="80" height="51" rx="3" fill="#00579F"/>
<path d="M35.9467 34.1696H31.0215L34.1021 16.6599H39.027L35.9467 34.1696Z" fill="white"/>
<path d="M53.7997 17.0881C52.8282 16.7338 51.2874 16.3427 49.3822 16.3427C44.5184 16.3427 41.0933 18.7268 41.0723 22.1355C41.0319 24.6504 43.5245 26.0472 45.3888 26.8857C47.2943 27.7426 47.9421 28.3019 47.9421 29.0657C47.9227 30.2387 46.4023 30.7794 44.9843 30.7794C43.0179 30.7794 41.9643 30.5006 40.3631 29.848L39.7146 29.5682L39.0254 33.4988C40.1805 33.9825 42.3088 34.4118 44.5184 34.4307C49.6862 34.4307 53.0507 32.0834 53.0906 28.4509C53.1102 26.4577 51.794 24.9304 48.9564 23.6823C47.2337 22.8812 46.1788 22.341 46.1788 21.5212C46.199 20.776 47.0711 20.0127 49.0156 20.0127C50.6168 19.9754 51.7932 20.3291 52.6844 20.6832L53.1299 20.8691L53.7997 17.0881Z" fill="white"/>
<path d="M60.3467 27.9665C60.7523 26.9606 62.3131 23.0675 62.3131 23.0675C62.2926 23.1048 62.7179 22.043 62.9611 21.3911L63.3053 22.8999C63.3053 22.8999 64.238 27.0911 64.4405 27.9665C63.6708 27.9665 61.3195 27.9665 60.3467 27.9665ZM66.4263 16.6599H62.6166C61.4418 16.6599 60.5492 16.9763 60.0423 18.1127L52.7266 34.1693H57.8944C57.8944 34.1693 58.7453 32.0082 58.9281 31.5428C59.4951 31.5428 64.5224 31.5428 65.2517 31.5428C65.3931 32.1575 65.8394 34.1693 65.8394 34.1693H70.3997L66.4263 16.6599Z" fill="white"/>
<path d="M26.906 16.6599L22.0826 28.5998L21.5555 26.1783C20.6638 23.3841 17.8671 20.3483 14.7461 18.8388L19.1642 34.151H24.3725L32.1141 16.6599H26.906Z" fill="white"/>
<path d="M17.6049 16.6599H9.68068L9.59961 17.0137C15.781 18.4667 19.8748 21.9692 21.5567 26.179L19.8341 18.1318C19.5505 17.0135 18.679 16.6968 17.6049 16.6599Z" fill="#FAA61A"/>
</g>
<defs>
<clipPath id="clip0">
<rect width="80" height="51" fill="white"/>
</clipPath>
</defs>
</svg>
