<svg width="26" height="26" viewBox="0 0 26 26" fill="none" xmlns="http://www.w3.org/2000/svg">
<path d="M23.4 22.4748L21.9112 5.71043C21.8793 5.33824 21.5656 5.05644 21.1988 5.05644H18.1362C18.0936 2.25971 15.8073 0 13 0C10.1926 0 7.90632 2.25971 7.86378 5.05644H4.80121C4.42902 5.05644 4.12064 5.33824 4.08873 5.71043L2.59998 22.4748C2.59998 22.4961 2.59467 22.5174 2.59467 22.5387C2.59467 24.4474 4.34395 26 6.49732 26H19.5026C21.656 26 23.4053 24.4474 23.4053 22.5387C23.4053 22.5174 23.4053 22.4961 23.4 22.4748ZM13 1.43558C15.0151 1.43558 16.6581 3.05194 16.7006 5.05644H9.29937C9.3419 3.05194 10.9848 1.43558 13 1.43558ZM19.5026 24.5644H6.49732C5.14681 24.5644 4.05152 23.6712 4.03025 22.5706L5.4552 6.49734H7.85847V8.6773C7.85847 9.07607 8.17749 9.39509 8.57626 9.39509C8.97503 9.39509 9.29405 9.07607 9.29405 8.6773V6.49734H16.7006V8.6773C16.7006 9.07607 17.0196 9.39509 17.4184 9.39509C17.8172 9.39509 18.1362 9.07607 18.1362 8.6773V6.49734H20.5394L21.9697 22.5706C21.9484 23.6712 20.8478 24.5644 19.5026 24.5644Z" fill="#3FA5AA"/>
</svg>
